<?xml version="1.0" standalone="no"?>
<!DOCTYPE svg PUBLIC "-//W3C//DTD SVG 20010904//EN"
 "http://www.w3.org/TR/2001/REC-SVG-20010904/DTD/svg10.dtd">
<svg version="1.0" xmlns="http://www.w3.org/2000/svg"
 width="1254.000000pt" height="1254.000000pt" viewBox="0 0 1254.000000 1254.000000"
 preserveAspectRatio="xMidYMid meet">

<g transform="translate(0.000000,1254.000000) scale(0.100000,-0.100000)"
fill="#000000" stroke="none">
<path d="M6041 11470 c-1045 -66 -2015 -452 -2806 -1119 -136 -115 -403 -380
-530 -526 -689 -798 -1117 -1813 -1242 -2945 -23 -208 -26 -864 -5 -1055 66
-596 186 -1067 403 -1578 472 -1109 1310 -1997 2395 -2540 989 -495 2080 -624
3105 -367 1055 265 1985 891 2677 1802 569 750 919 1667 1034 2708 20 184 17
865 -5 1065 -74 667 -260 1305 -548 1885 -261 524 -556 930 -970 1335 -243
237 -425 386 -688 560 -576 381 -1215 631 -1871 730 -280 43 -680 61 -949 45z
m590 -50 c875 -67 1697 -376 2404 -905 197 -147 347 -277 525 -455 242 -242
411 -447 596 -726 268 -403 460 -798 614 -1263 359 -1083 371 -2230 33 -3321
-348 -1127 -1055 -2086 -2001 -2719 -596 -398 -1291 -660 -1982 -747 -199 -25
-695 -30 -910 -10 -744 71 -1465 327 -2125 754 -1269 821 -2090 2161 -2270
3707 -95 813 17 1713 310 2500 513 1375 1524 2407 2839 2900 422 158 878 254
1366 288 112 8 479 6 601 -3z"/>
<path d="M6222 11333 c37 -2 100 -2 140 0 40 1 10 3 -67 3 -77 0 -110 -1 -73
-3z"/>
<path d="M6018 11323 c23 -2 61 -2 85 0 23 2 4 4 -43 4 -47 0 -66 -2 -42 -4z"/>
<path d="M6483 11323 c26 -2 68 -2 95 0 26 2 4 3 -48 3 -52 0 -74 -1 -47 -3z"/>
<path d="M5711 11299 c-151 -20 -450 -78 -536 -104 -66 -20 -16 -12 120 19
151 35 383 73 545 90 87 9 114 14 75 14 -33 0 -125 -8 -204 -19z"/>
<path d="M6663 11313 c15 -2 39 -2 55 0 15 2 2 4 -28 4 -30 0 -43 -2 -27 -4z"/>
<path d="M6775 11303 c73 -9 315 -44 346 -49 19 -4 31 -4 28 0 -9 9 -319 56
-364 54 -32 -1 -34 -2 -10 -5z"/>
<path d="M7168 11243 c6 -2 18 -2 25 0 6 3 1 5 -13 5 -14 0 -19 -2 -12 -5z"/>
<path d="M7230 11230 c14 -4 34 -8 45 -8 16 0 15 2 -5 8 -14 4 -34 8 -45 8
-16 0 -15 -2 5 -8z"/>
<path d="M7400 11190 c58 -16 109 -28 114 -27 12 4 -185 57 -205 56 -8 0 33
-13 91 -29z"/>
<path d="M5075 11170 c-13 -5 -14 -9 -5 -9 8 0 24 4 35 9 13 5 14 9 5 9 -8 0
-24 -4 -35 -9z"/>
<path d="M4835 11096 c-1184 -397 -2133 -1240 -2717 -2411 -78 -157 -193 -423
-185 -431 2 -2 12 17 22 43 10 27 44 107 76 180 260 591 609 1096 1061 1539
508 497 1081 847 1758 1074 113 38 198 69 190 70 -8 0 -100 -29 -205 -64z"/>
<path d="M7695 11101 c94 -32 183 -63 199 -70 16 -6 31 -10 33 -8 8 9 -364
138 -392 136 -5 0 67 -26 160 -58z"/>
<path d="M7941 11016 c9 -8 173 -76 176 -72 2 2 -34 20 -81 40 -76 32 -107 43
-95 32z"/>
<path d="M8315 10842 c368 -189 650 -380 945 -639 659 -579 1133 -1306 1426
-2188 35 -104 63 -185 64 -178 0 17 -87 283 -132 403 -408 1076 -1141 1955
-2082 2495 -107 61 -391 205 -403 205 -5 0 78 -44 182 -98z"/>
<path d="M6145 10541 c-3 -7 0 -8 9 -5 12 5 16 -1 16 -22 0 -16 -5 -36 -10
-44 -9 -13 -11 -13 -20 0 -7 11 -10 2 -10 -32 0 -59 -15 -62 -30 -7 -12 43
-45 83 -60 74 -21 -13 -8 -45 36 -94 l46 -51 -6 -63 c-4 -34 -11 -78 -15 -97
l-8 -35 -12 28 c-6 16 -12 45 -12 65 -1 20 -3 29 -6 19 -4 -14 -8 -16 -19 -6
-11 9 -14 8 -14 -4 0 -11 -5 -14 -17 -10 -16 6 -17 5 -3 -12 14 -17 14 -18 -8
-6 -12 7 -20 16 -17 22 4 5 1 9 -4 9 -29 0 17 -52 58 -65 9 -2 24 -20 34 -38
15 -27 17 -46 11 -97 l-7 -64 -23 30 c-13 16 -24 41 -24 56 0 34 -9 58 -22 58
-6 0 -8 -13 -6 -30 l4 -29 -30 19 c-33 20 -66 13 -66 -15 0 -10 9 -12 34 -8
21 3 36 1 41 -7 5 -8 4 -11 -3 -7 -14 9 -43 -3 -36 -14 3 -5 22 -9 43 -9 33 0
42 -5 65 -38 25 -36 26 -45 26 -160 0 -67 -3 -122 -7 -122 -20 0 -57 77 -58
119 0 30 -5 45 -15 48 -12 4 -13 3 -1 -5 10 -7 11 -17 4 -37 l-9 -27 -18 38
c-11 22 -22 46 -26 54 -10 21 -34 19 -38 -3 -2 -10 10 -30 27 -46 38 -36 39
-43 4 -36 l-28 6 28 -16 c16 -9 27 -18 25 -20 -8 -8 -73 13 -70 23 1 7 -2 12
-8 12 -5 0 -10 -7 -10 -15 0 -23 57 -48 96 -40 32 5 35 3 68 -47 33 -50 35
-59 45 -187 6 -74 11 -146 11 -160 l-1 -26 -28 35 c-19 22 -31 51 -35 81 -4
25 -14 54 -24 63 -19 16 -32 13 -32 -8 0 -6 4 -4 10 4 7 11 11 9 19 -13 16
-42 12 -68 -4 -32 -11 22 -14 25 -15 11 0 -18 -4 -16 -32 10 -18 16 -24 19
-14 7 15 -18 16 -23 5 -24 -8 0 -4 -5 9 -11 31 -16 29 -40 -3 -32 -31 8 -33
-3 -2 -16 16 -6 17 -9 5 -9 -9 -1 -24 6 -32 15 -13 12 -16 12 -16 2 0 -18 59
-39 88 -31 18 4 32 -3 58 -28 20 -19 40 -42 45 -51 11 -21 63 -455 84 -706 16
-200 18 -312 8 -476 -6 -99 -8 -107 -26 -104 -17 2 -24 20 -42 103 -13 55 -39
155 -59 222 -20 67 -36 129 -36 137 0 8 -4 16 -8 18 -5 2 -23 39 -41 83 -18
44 -55 130 -82 191 -42 96 -49 121 -49 177 0 48 4 66 15 71 14 5 55 63 55 79
0 15 -25 6 -52 -20 -35 -34 -37 -14 -3 46 14 23 25 50 25 60 0 9 -12 -6 -25
-34 -25 -49 -35 -42 -15 11 9 24 9 25 -5 14 -8 -7 -15 -24 -16 -39 0 -26 0
-26 -11 -3 -6 12 -17 22 -25 22 -21 0 -15 -43 12 -80 20 -27 25 -46 25 -94 l0
-60 -34 56 c-99 166 -134 236 -145 297 l-12 64 30 31 c30 32 51 86 33 86 -5 0
-16 -8 -23 -17 -13 -16 -12 -17 4 -4 9 7 17 9 17 4 0 -15 -30 -53 -42 -53 -6
0 -8 3 -5 7 4 3 2 12 -4 19 -7 9 -7 19 0 33 21 38 7 115 -14 81 -3 -5 -1 -10
4 -10 13 0 14 -30 4 -57 -6 -16 -8 -15 -15 7 -6 19 -7 16 -3 -12 4 -44 -7 -50
-23 -13 -6 14 -17 25 -24 24 -10 0 -10 -2 0 -6 6 -2 12 -9 12 -14 0 -6 -4 -7
-10 -4 -20 12 -9 -15 19 -47 29 -34 53 -138 31 -138 -5 0 -10 4 -10 9 0 4 -31
51 -70 102 -68 91 -70 95 -67 148 1 38 -2 55 -12 59 -10 3 -12 -5 -9 -37 4
-46 -1 -50 -27 -21 -16 18 -17 45 -3 90 3 8 3 12 1 8 -9 -15 -22 -8 -26 15 -3
12 -5 5 -4 -15 2 -49 -7 -56 -23 -18 -9 23 -15 28 -21 18 -7 -11 -12 -11 -31
1 -20 12 -19 10 5 -16 32 -34 35 -48 8 -33 -28 14 -35 12 -17 -5 8 -8 24 -15
35 -15 21 0 81 -45 81 -61 0 -5 -13 -3 -30 6 -37 19 -56 19 -64 0 -13 -34 3
-44 63 -39 l58 5 61 -83 c34 -46 62 -89 62 -95 0 -7 -20 0 -47 17 -48 30 -73
38 -73 21 0 -5 -11 -11 -25 -13 -18 -2 -22 -7 -16 -17 8 -12 13 -12 35 2 35
23 41 21 23 -7 -15 -22 -15 -25 -1 -30 9 -3 39 -6 68 -6 42 0 57 -5 74 -22 21
-24 104 -160 99 -165 -2 -1 -29 7 -61 19 -45 17 -64 30 -87 65 -21 30 -37 43
-52 42 -16 -1 -17 -3 -5 -6 19 -5 33 -33 16 -33 -7 0 -6 -5 2 -15 24 -29 1
-27 -44 4 -44 30 -76 40 -76 22 0 -15 29 -33 45 -28 8 4 17 2 20 -3 3 -5 -7
-12 -22 -15 -36 -8 -54 -17 -56 -30 -3 -17 42 -17 90 -1 55 19 66 14 30 -15
-28 -21 -36 -49 -14 -49 6 0 31 16 55 34 42 34 44 34 80 21 71 -25 91 -38 116
-75 35 -53 108 -201 102 -207 -3 -3 -24 8 -48 24 -33 22 -44 36 -46 60 -3 30
-36 72 -48 60 -3 -3 3 -18 12 -34 17 -25 15 -25 -24 10 -23 20 -49 37 -57 37
-26 0 -16 -30 18 -50 l32 -20 -37 0 c-20 0 -39 -4 -42 -9 -10 -16 18 -29 61
-28 51 2 62 -7 40 -31 -30 -33 11 -46 45 -15 18 16 22 16 65 -7 49 -26 50 -27
129 -220 23 -58 41 -106 39 -108 -9 -10 -77 54 -100 94 -29 50 -65 76 -65 48
0 -10 7 -26 17 -36 9 -10 11 -18 5 -18 -6 0 -13 4 -16 9 -3 5 -16 7 -29 5 -20
-4 -20 -4 -2 5 19 8 18 9 -7 16 -30 8 -47 1 -44 -18 4 -27 17 -36 45 -31 16 4
32 1 35 -5 4 -6 0 -11 -11 -11 -17 -1 -17 -1 0 -11 11 -6 32 -8 49 -5 23 4 40
-1 72 -24 24 -16 50 -40 59 -53 20 -30 50 -131 86 -283 l28 -119 -166 -10
-166 -10 -14 30 c-12 26 -11 37 4 85 10 30 24 65 32 77 9 16 11 39 7 79 l-7
56 -19 -48 c-22 -58 -22 -65 -3 -40 14 18 15 18 15 2 0 -21 -18 -56 -28 -56
-4 0 -8 18 -9 40 -1 22 -7 48 -13 57 -10 17 -10 16 -9 -2 1 -11 1 -40 0 -65
-2 -43 -2 -44 -17 -25 -18 23 -14 110 9 163 l13 33 12 -26 c7 -14 12 -32 12
-40 0 -8 4 -15 10 -15 12 0 -21 87 -35 92 -14 4 -36 -67 -42 -137 -4 -50 -1
-71 21 -122 28 -66 31 -83 17 -83 -4 0 -25 34 -46 75 -21 41 -49 85 -63 97
l-25 23 27 -42 c27 -45 22 -58 -9 -23 -10 11 -21 20 -25 20 -5 0 -22 14 -40
30 -18 17 -37 30 -44 30 -6 0 20 -29 57 -63 37 -34 67 -65 67 -68 0 -9 -47
-17 -58 -10 -5 3 -16 20 -25 36 -11 20 -16 24 -17 13 0 -10 13 -32 28 -50 25
-27 35 -31 75 -30 42 2 48 -1 87 -45 23 -26 38 -48 33 -50 -4 -1 -68 -9 -142
-18 -73 -9 -177 -27 -230 -40 -52 -13 -99 -21 -104 -18 -5 3 -25 31 -45 62
-34 52 -36 62 -40 151 -6 132 6 171 63 205 53 30 94 87 107 148 13 58 21 197
11 197 -9 -1 -101 -80 -92 -80 3 0 20 11 39 25 25 19 36 22 41 13 6 -12 -4
-126 -15 -173 -7 -29 -75 -105 -93 -105 -11 0 -7 7 11 21 15 12 25 24 22 27
-3 3 -15 -3 -26 -13 -28 -25 -25 -7 5 38 14 20 21 37 15 37 -6 0 -8 5 -5 10 3
6 1 10 -4 10 -6 0 -11 -7 -11 -16 0 -10 -6 -14 -15 -10 -11 4 -15 -1 -15 -19
0 -25 -19 -46 -21 -23 -1 7 -5 2 -9 -12 -7 -22 -8 -20 -9 15 -1 44 26 112 52
134 10 7 17 18 17 24 0 19 -36 -23 -60 -70 -18 -36 -23 -60 -21 -105 5 -122 0
-338 -9 -338 -3 0 -29 37 -58 81 -29 45 -56 78 -59 75 -3 -3 38 -72 91 -154
53 -81 96 -151 96 -154 0 -4 -34 7 -75 24 -49 20 -83 41 -95 59 -24 33 -80 69
-106 69 -13 0 -9 -5 13 -16 17 -9 40 -25 50 -36 18 -21 18 -21 -4 -9 -12 6
-28 8 -37 5 -8 -3 -29 1 -46 9 -17 9 -28 11 -25 6 4 -5 -9 -9 -27 -10 l-33 0
40 -15 c22 -8 54 -16 70 -19 17 -2 32 -4 34 -4 2 -1 -3 -9 -10 -18 -12 -15
-12 -16 6 -9 11 5 31 10 45 13 16 3 10 -3 -18 -17 -39 -19 -48 -20 -98 -9 -34
8 -72 26 -101 48 l-46 36 39 17 c22 10 48 18 59 18 11 1 29 6 40 11 15 7 9 8
-20 3 -57 -8 -145 -36 -145 -46 0 -5 14 -17 31 -26 17 -9 43 -26 58 -38 30
-23 95 -44 137 -44 16 0 47 9 69 19 22 10 47 16 55 14 39 -11 120 -46 120 -52
0 -4 -27 -20 -60 -35 -34 -16 -72 -43 -87 -60 -26 -31 -26 -31 -19 -156 4 -69
9 -140 12 -157 4 -19 2 -33 -3 -33 -21 0 -122 74 -132 97 -6 13 -12 41 -12 61
-2 32 -3 33 -6 9 -4 -27 -5 -28 -18 -10 -22 28 -17 2 5 -32 11 -16 20 -33 20
-37 0 -17 -156 89 -198 135 -13 14 -30 42 -37 64 -11 32 -11 43 1 72 16 39 18
79 4 101 -6 10 -8 4 -4 -21 4 -20 2 -45 -4 -55 -8 -15 -11 -13 -17 14 -9 41
-30 43 -21 2 8 -40 1 -38 -20 7 -10 20 -20 31 -22 25 -2 -7 6 -27 17 -45 28
-44 61 -109 61 -124 0 -8 -26 -11 -90 -9 -50 2 -93 -1 -96 -5 -5 -8 13 -13 44
-12 10 1 10 -2 0 -15 -12 -14 -10 -14 10 -3 31 17 37 9 12 -14 -22 -20 -140
-35 -140 -18 0 18 24 33 55 34 29 0 29 1 7 11 -19 10 -27 7 -52 -17 l-30 -29
22 -13 c43 -23 98 -11 148 33 35 30 81 37 112 16 13 -9 108 -72 209 -140 l184
-124 32 -124 c71 -276 203 -494 375 -621 35 -25 48 -41 48 -60 0 -18 -4 -23
-17 -19 -10 3 -63 17 -118 31 -217 58 -301 104 -356 192 -18 29 -20 47 -18
150 3 141 -12 252 -38 273 -10 8 -27 36 -36 62 -18 47 -42 76 -54 64 -4 -3 1
-12 11 -19 10 -7 26 -38 36 -67 11 -30 23 -54 28 -53 12 3 29 -57 38 -131 5
-47 4 -58 -7 -54 -9 3 -13 16 -11 34 5 39 -5 27 -23 -27 l-15 -44 6 55 c3 30
8 74 11 98 4 26 2 42 -5 42 -6 0 -10 -12 -10 -27 0 -16 -7 -44 -15 -63 -15
-34 -15 -34 -21 -10 -3 14 -4 34 -4 45 1 11 1 38 0 60 -2 42 -17 39 -24 -5
l-4 -25 -14 30 c-7 17 -14 50 -15 75 -3 67 -7 78 -14 46 -5 -25 -11 -16 -43
75 -34 96 -35 102 -12 74 13 -16 24 -33 24 -37 0 -5 7 -8 15 -8 8 0 21 -12 29
-27 9 -16 15 -21 16 -13 0 22 -29 60 -46 60 -8 0 -14 4 -14 10 0 16 -61 80
-71 74 -5 -3 -8 -26 -8 -52 1 -26 4 -37 6 -24 2 12 8 22 12 22 8 0 33 -69 51
-138 6 -24 14 -51 18 -60 5 -15 3 -15 -22 2 -28 18 -27 17 8 -29 41 -55 45
-71 14 -54 -18 9 -16 4 10 -23 17 -19 32 -40 32 -48 0 -9 -5 -8 -15 6 -11 15
-14 16 -15 4 0 -9 5 -21 12 -28 9 -9 9 -12 1 -12 -7 0 -21 14 -33 31 -12 16
-24 28 -27 25 -10 -9 31 -57 78 -91 31 -23 46 -41 42 -50 -7 -21 -27 -19 -48
5 -10 11 -25 20 -34 20 -19 0 -82 130 -83 172 -1 15 -5 25 -10 22 -14 -9 0
-70 25 -119 11 -22 21 -46 21 -52 1 -7 20 -36 42 -66 38 -48 68 -72 145 -120
31 -18 124 -137 108 -137 -15 0 -208 80 -331 138 -78 37 -121 64 -157 100 -74
74 -92 116 -96 231 -4 95 -21 181 -44 217 -11 17 -12 16 -6 -6 29 -110 45
-232 21 -155 l-13 40 -5 -35 c-4 -28 -5 -24 -7 20 -2 75 -21 104 -21 33 0 -59
-9 -66 -36 -25 -14 21 -17 43 -15 105 1 48 -1 77 -8 77 -6 0 -8 -12 -5 -27 2
-16 1 -41 -4 -58 l-9 -30 -16 32 c-9 18 -17 48 -17 67 0 19 -5 38 -12 42 -8 5
-9 2 -5 -9 3 -9 3 -19 -2 -21 -4 -3 -19 18 -32 46 -13 28 -45 88 -71 132 -55
93 -60 111 -20 73 15 -15 31 -27 35 -27 7 0 36 -24 89 -75 17 -16 28 -23 23
-15 -13 24 -48 60 -58 60 -5 0 -18 11 -29 25 -11 14 -23 23 -27 21 -4 -3 -25
13 -46 34 -22 22 -43 40 -48 40 -5 0 -6 -26 -3 -57 4 -32 9 -84 11 -116 4 -52
18 -97 30 -97 3 0 0 11 -5 24 -10 27 -26 204 -17 196 3 -3 27 -46 52 -95 l48
-90 -34 30 -34 30 25 -30 c14 -16 30 -35 36 -40 15 -13 54 -78 54 -89 0 -4 -8
-5 -17 -2 -10 4 -1 -9 20 -28 40 -38 47 -52 20 -41 -11 4 -7 -6 12 -25 l30
-32 -40 23 c-22 12 -49 30 -60 38 -14 11 -12 7 4 -12 14 -15 46 -41 72 -58 53
-33 70 -59 39 -59 -10 0 -22 4 -25 10 -3 5 -16 15 -28 22 -20 10 -21 10 -8 -5
7 -9 29 -26 48 -38 20 -12 32 -27 29 -35 -3 -7 0 -15 7 -17 7 -2 9 -7 6 -11
-12 -13 -94 59 -133 117 -47 68 -62 68 -18 0 36 -56 126 -135 193 -168 25 -13
58 -41 74 -62 15 -21 42 -53 58 -70 17 -18 28 -35 26 -38 -9 -8 -353 148 -425
194 -19 12 -47 49 -74 97 -42 79 -123 184 -141 184 -5 0 -24 16 -42 37 -27 28
-38 34 -53 28 -18 -8 -18 -9 3 -12 12 -3 34 -19 49 -36 15 -17 33 -32 42 -32
15 0 107 -123 98 -132 -2 -3 -11 4 -18 16 -19 31 -28 26 -21 -11 8 -43 -8 -31
-46 35 -17 28 -42 66 -56 82 l-27 30 23 -45 c25 -50 41 -110 29 -110 -10 0
-33 29 -63 80 -14 25 -40 61 -57 80 l-31 35 25 -40 c29 -45 44 -105 28 -105
-6 0 -21 14 -33 32 -20 28 -23 29 -29 12 -6 -15 -13 -9 -45 39 -37 56 -56 76
-35 37 6 -11 8 -25 5 -30 -3 -6 -1 -10 6 -10 7 0 9 -3 6 -7 -9 -8 -88 27 -82
37 5 8 -51 100 -61 100 -3 0 1 -11 10 -25 9 -14 23 -36 32 -50 18 -27 5 -35
-16 -10 -7 8 -20 15 -29 15 -9 0 -21 4 -26 9 -6 5 -46 28 -90 51 -76 39 -131
78 -95 66 33 -10 114 -16 105 -7 -6 5 -46 12 -89 16 l-80 7 19 -28 c9 -16 26
-38 36 -50 11 -11 19 -25 19 -31 0 -6 14 -23 31 -37 17 -14 27 -30 24 -36 -8
-13 51 -70 72 -70 9 0 13 -6 10 -15 -7 -17 31 -50 78 -65 18 -6 35 -19 38 -30
3 -11 18 -25 34 -31 15 -6 41 -17 56 -25 16 -8 33 -14 39 -14 6 0 16 -7 23
-16 16 -23 186 -40 265 -27 74 12 117 -1 290 -86 69 -33 131 -61 138 -61 6 0
12 -4 12 -8 0 -5 -45 -14 -101 -20 -84 -9 -107 -8 -142 4 -79 29 -265 25 -326
-6 -9 -5 -38 -16 -64 -25 -27 -10 -51 -23 -54 -31 -3 -8 -25 -23 -49 -33 -31
-14 -44 -26 -44 -40 0 -12 -6 -21 -13 -21 -19 0 -83 -57 -75 -66 4 -4 17 5 28
19 11 14 30 29 41 32 11 4 24 17 29 29 19 50 147 77 222 47 22 -9 22 -10 -7
-11 -23 0 -27 -3 -15 -10 13 -9 13 -10 0 -11 -44 -2 -105 -11 -110 -15 -2 -3
2 -9 9 -13 19 -12 -24 -34 -63 -33 -20 1 -26 -2 -17 -8 10 -6 -10 -20 -67 -49
-76 -38 -110 -42 -60 -7 12 9 18 16 12 16 -12 0 -74 -62 -74 -74 0 -4 35 -6
78 -5 42 2 83 0 90 -5 7 -4 30 -5 50 -1 77 13 57 20 -54 20 -63 0 -114 1 -114
3 0 4 177 90 201 97 20 7 20 6 3 -22 -13 -19 -6 -15 21 14 25 26 60 50 93 63
l53 20 -25 -33 c-40 -52 -31 -54 12 -3 36 44 50 53 91 61 29 5 26 -14 -10 -66
l-30 -44 36 40 c19 22 49 55 65 74 17 19 33 31 37 27 4 -4 3 -10 -3 -14 -6 -4
-14 -16 -18 -27 -7 -18 -5 -18 17 3 23 22 54 31 42 12 -9 -14 8 -13 23 2 6 6
15 9 18 5 17 -17 -193 -169 -233 -169 -13 0 -23 -4 -23 -9 0 -23 92 12 119 45
7 8 18 13 25 10 7 -3 56 38 108 90 110 108 120 112 268 102 105 -6 120 -8 114
-17 -5 -9 65 -34 84 -31 7 2 15 -4 18 -13 3 -8 17 -15 30 -15 13 0 24 -4 24
-8 0 -8 199 -104 295 -143 28 -12 24 -13 -70 -25 -93 -12 -104 -12 -165 7 -35
12 -83 23 -105 25 -22 3 -61 7 -88 10 -28 4 -53 2 -61 -5 -8 -7 -31 -9 -58 -5
-32 5 -48 2 -59 -9 -8 -8 -35 -18 -59 -22 -25 -4 -53 -18 -67 -31 -13 -13 -32
-24 -41 -24 -23 0 -112 -56 -112 -70 0 -12 41 9 52 26 8 12 47 29 90 38 16 4
27 12 25 18 -3 16 57 37 106 37 23 1 36 5 32 11 -4 6 10 10 34 10 22 0 43 -5
46 -11 4 -6 14 -8 22 -5 8 3 21 -1 29 -9 14 -13 9 -15 -43 -16 -56 0 -57 -1
-26 -12 40 -15 57 -32 23 -23 -33 8 -197 20 -190 14 3 -3 26 -8 52 -11 26 -3
55 -10 64 -15 27 -15 -10 -43 -49 -38 -18 2 -59 7 -92 10 l-60 6 57 -13 c77
-18 83 -27 17 -28 -30 0 -76 -4 -104 -9 -49 -7 -49 -7 25 -9 53 -1 71 -4 60
-11 -8 -5 -33 -10 -55 -10 -27 0 -36 -3 -26 -9 11 -7 6 -13 -20 -27 -19 -10
-37 -17 -41 -16 -5 1 -8 -2 -8 -8 0 -5 -30 -26 -67 -46 -83 -46 -126 -75 -119
-81 4 -4 35 11 131 68 l40 23 -20 -25 c-11 -13 -2 -8 20 12 68 62 106 73 69
21 -9 -13 -14 -25 -12 -27 2 -2 17 16 33 40 22 32 44 50 79 65 27 11 53 20 58
20 5 0 -8 -26 -28 -57 -24 -38 -29 -51 -15 -39 11 10 35 40 51 67 31 47 39 53
93 69 17 5 25 5 22 -1 -4 -5 -1 -9 4 -9 6 0 11 5 11 12 0 6 3 9 6 6 9 -10 -15
-49 -54 -90 -20 -21 -33 -40 -30 -43 3 -3 27 20 53 52 91 111 150 148 120 77
-8 -19 -24 -50 -36 -67 -21 -32 -21 -32 12 4 19 19 44 48 57 65 13 16 20 23
16 15 -5 -11 -3 -13 10 -8 14 6 15 3 6 -13 -18 -33 6 -23 40 18 24 28 28 30
15 9 -17 -29 -12 -54 5 -27 6 8 10 10 10 5 0 -17 -87 -98 -98 -91 -5 3 -16 -1
-23 -10 -16 -20 -100 -63 -120 -61 -8 0 -41 -11 -73 -27 -38 -17 -68 -25 -83
-21 -13 3 -36 -1 -51 -9 -40 -20 -96 -31 -87 -17 7 12 1 11 -85 -9 -19 -5 -56
-9 -82 -9 -26 1 -51 -1 -55 -4 -4 -3 -13 1 -20 8 -9 10 -6 18 13 36 13 12 24
27 24 33 -1 16 -80 -74 -80 -91 0 -9 7 -13 18 -10 52 15 117 22 258 29 48 3
81 10 100 22 19 13 29 15 32 8 6 -19 35 -14 95 16 31 16 60 25 65 20 9 -9 80
24 110 52 12 11 31 20 43 20 15 0 56 33 121 99 113 113 131 121 272 121 74 0
99 -5 211 -45 70 -24 130 -46 133 -49 3 -3 -4 -8 -14 -11 -10 -4 -35 -13 -54
-22 -18 -8 -75 -21 -125 -28 -50 -8 -111 -23 -135 -33 -55 -24 -163 -110 -157
-125 2 -7 -11 -29 -30 -50 -19 -21 -33 -46 -32 -55 1 -9 -10 -43 -25 -76 -15
-32 -24 -61 -21 -64 5 -5 97 21 145 41 14 6 33 12 43 13 10 1 31 11 47 23 16
11 33 21 38 21 6 0 35 21 66 47 62 50 94 99 121 180 30 95 114 137 226 113 48
-10 59 -16 54 -29 -37 -95 5 -159 136 -206 157 -55 380 -80 649 -72 305 9 505
60 585 148 l34 38 25 -54 c30 -66 76 -125 96 -125 8 0 21 -9 28 -21 7 -11 19
-18 27 -15 8 3 25 -4 39 -15 25 -19 53 -18 40 2 -3 5 -9 7 -14 4 -5 -3 -15 3
-22 15 -7 11 -23 20 -36 20 -15 0 -21 4 -16 12 4 6 3 9 -2 5 -5 -3 -21 5 -37
17 -35 28 -70 139 -54 174 16 35 22 26 19 -30 -3 -59 11 -49 22 16 7 35 9 37
23 23 10 -10 16 -38 18 -79 2 -55 17 -108 29 -108 2 0 0 18 -5 39 -5 22 -5 49
-1 61 7 19 10 20 21 6 7 -8 14 -37 15 -63 1 -26 7 -57 13 -68 10 -16 11 -10 7
35 -5 51 -4 54 10 36 9 -11 16 -32 16 -46 0 -15 10 -35 21 -46 l22 -19 -17 32
c-18 36 -19 43 -8 43 5 0 14 -10 20 -22 6 -13 20 -37 32 -55 l21 -32 -21 4
c-12 2 -30 7 -41 10 -10 4 -19 2 -19 -3 0 -11 45 -32 68 -32 10 0 23 -5 29
-11 7 -7 18 -9 26 -6 15 6 14 81 -3 131 -12 35 -3 49 12 21 18 -33 99 -105
119 -105 10 0 30 -12 46 -26 17 -16 34 -23 47 -20 11 3 26 0 34 -7 8 -6 28
-12 46 -14 17 -1 49 -7 71 -13 92 -26 88 -27 81 11 -4 19 -9 48 -12 66 -8 45
-54 83 -131 109 -41 14 -74 32 -83 45 -14 21 -13 22 20 17 19 -3 43 -8 53 -13
9 -4 17 -3 17 2 0 15 -71 43 -117 45 -22 2 -39 7 -36 11 3 5 28 6 57 4 55 -5
106 -30 106 -53 0 -8 4 -14 10 -14 5 0 21 -18 35 -40 25 -40 45 -52 45 -26 0
7 -18 30 -40 50 -22 19 -37 41 -35 48 7 18 -5 32 -44 56 -18 11 -38 30 -45 43
-19 38 -147 125 -167 113 -14 -8 -101 5 -94 15 2 5 47 11 99 15 114 9 201 -12
219 -51 6 -13 17 -23 26 -23 14 0 14 2 1 11 -12 8 -10 9 10 7 20 -2 28 -14 46
-65 21 -64 39 -93 56 -93 5 0 -2 14 -16 31 -25 30 -38 98 -16 84 6 -4 8 -10 5
-15 -3 -4 3 -7 13 -6 12 1 26 -18 47 -62 27 -55 37 -66 80 -86 64 -29 102 -39
110 -26 3 5 -6 28 -21 51 -23 37 -28 41 -38 27 -11 -14 -17 -12 -55 19 -24 21
-40 41 -37 49 3 8 -1 14 -8 14 -7 0 -19 7 -26 15 -11 13 -7 13 26 -1 47 -19
71 -40 34 -29 l-25 7 24 -26 c24 -26 49 -36 35 -15 -5 8 -1 8 14 0 75 -40 11
23 -73 72 l-70 41 33 7 c18 4 36 9 39 13 11 11 -68 6 -89 -5 -11 -6 -18 -7
-14 -1 3 5 -8 15 -25 23 -29 12 -30 13 -13 26 43 32 188 1 205 -44 5 -14 7
-28 4 -33 -11 -18 67 -131 81 -117 5 4 3 17 -4 28 -7 11 -10 24 -7 30 4 5 -7
32 -24 59 l-31 50 27 -6 c16 -3 45 -17 66 -30 20 -13 37 -20 37 -15 0 5 13 5
29 -2 16 -6 29 -13 28 -16 -5 -17 50 -110 65 -111 21 0 34 -20 19 -29 -7 -5 0
-15 19 -29 40 -30 47 -28 48 15 1 21 6 39 12 41 6 2 6 10 -1 24 -6 11 -8 22
-6 25 3 3 37 -12 77 -32 81 -43 124 -87 117 -121 -2 -13 0 -29 4 -36 7 -10 9
-9 9 4 0 9 5 18 12 20 7 3 5 13 -7 31 -10 15 -16 30 -13 32 10 10 59 -38 54
-51 -7 -18 2 -18 20 1 13 12 12 16 -8 26 l-23 13 25 7 c23 6 23 7 -7 8 -42 1
-43 17 -2 26 23 5 28 9 18 16 -12 7 -12 12 0 31 9 16 4 13 -16 -8 -45 -47 -65
-50 -124 -16 -58 33 -53 44 19 44 47 1 72 11 72 31 0 7 -4 7 -12 -1 -14 -14
-28 -16 -28 -3 0 5 9 13 20 16 22 7 27 30 9 41 -6 3 -16 1 -22 -6 -9 -10 -9
-11 0 -6 6 3 14 3 16 -1 3 -5 -11 -16 -30 -25 l-35 -16 5 26 c2 15 8 35 12 45
4 9 3 17 -3 17 -5 0 -13 -10 -17 -22 -7 -23 -7 -23 -18 5 -13 32 -18 33 -42 7
-19 -21 -7 -28 13 -8 9 9 12 8 12 -4 0 -12 -8 -15 -27 -13 -16 1 -44 -7 -65
-18 -36 -21 -37 -21 -90 -3 -29 10 -84 31 -123 47 -38 15 -106 38 -150 50 -44
12 -100 28 -125 34 l-45 13 37 16 c21 9 43 16 51 16 17 0 158 48 166 56 3 4
-4 3 -16 0 -34 -11 -28 0 7 13 18 6 28 6 25 1 -4 -6 6 -7 22 -4 36 7 256 -32
297 -53 17 -9 48 -33 68 -54 21 -22 45 -39 53 -39 22 0 18 33 -6 64 l-21 27
23 -4 c13 -2 19 -2 12 0 -14 5 -26 33 -13 33 5 0 24 -14 42 -31 28 -26 30 -29
11 -24 -28 8 -30 -6 -3 -23 17 -10 21 -10 26 3 13 32 -60 95 -109 95 -9 0 -19
4 -22 10 -9 14 135 1 210 -19 50 -14 63 -22 89 -58 23 -34 27 -45 17 -56 -15
-19 11 -31 28 -14 9 9 14 8 22 -3 9 -12 10 -12 5 3 -3 10 -6 21 -6 23 0 2 -6
4 -12 4 -14 0 -52 59 -44 67 7 8 43 -6 71 -28 19 -15 24 -27 19 -41 -5 -18 -4
-19 9 -7 9 9 12 18 6 24 -19 20 -8 25 24 10 l32 -16 -25 20 c-14 12 -35 24
-47 27 -13 3 -23 10 -23 15 0 5 10 9 23 9 12 0 28 4 36 9 21 13 -5 24 -28 11
-28 -14 -77 -12 -141 6 -30 9 -67 18 -82 21 -39 7 -25 23 20 23 49 0 107 17
122 35 11 13 7 13 -25 -1 -20 -8 -44 -13 -53 -12 -11 3 -2 9 21 17 20 7 37 16
37 21 0 11 -89 -15 -103 -29 -21 -21 -30 -11 -10 12 32 35 34 44 11 42 -12 -1
-27 -14 -35 -31 -26 -51 -51 -64 -125 -64 -38 0 -68 4 -68 8 0 5 17 18 39 30
37 21 71 52 57 52 -4 0 -21 -7 -37 -16 -17 -8 -38 -12 -47 -8 -30 12 -92 21
-92 13 0 -4 5 -9 11 -11 23 -8 -10 -48 -39 -48 -15 0 -51 -3 -79 -6 -30 -4
-53 -3 -53 2 0 5 30 25 68 43 37 19 69 37 72 41 3 3 25 20 49 38 48 34 78 39
130 21 32 -11 38 -10 101 21 8 4 16 19 18 34 3 20 -2 28 -23 36 -14 5 -37 10
-51 10 -13 0 -24 4 -24 9 0 4 24 31 54 60 54 50 96 65 112 40 5 -8 10 -6 16 6
15 25 -4 40 -32 25 -12 -6 -25 -9 -28 -5 -9 8 27 35 46 35 9 0 11 7 7 20 -4
13 -1 22 9 26 8 3 17 13 20 21 5 13 4 14 -8 4 -11 -10 -17 -8 -25 6 -9 15 -10
12 -11 -18 0 -32 -23 -69 -43 -69 -12 0 -7 44 8 70 16 27 20 54 6 31 -8 -12
-12 -13 -25 -1 -14 11 -16 10 -10 -4 6 -17 -5 -21 -22 -8 -5 4 -1 0 8 -10 12
-10 18 -31 18 -57 0 -36 -8 -50 -67 -118 -40 -45 -69 -71 -71 -63 -2 15 18 97
33 135 8 18 7 18 -8 6 -15 -12 -17 -11 -17 10 0 13 -4 30 -9 37 -18 29 -22
-29 -6 -98 l5 -25 -22 25 c-20 24 -21 21 -2 -25 4 -10 -2 -18 -17 -24 -19 -7
-25 -5 -32 11 -4 11 -4 25 -1 30 4 6 1 8 -7 6 -17 -6 -17 -71 1 -93 9 -11 17
-12 32 -4 54 29 10 -42 -56 -89 -116 -83 -260 -142 -161 -66 40 30 75 91 74
126 -1 19 -2 17 -10 -8 -10 -35 -39 -66 -39 -43 0 8 -9 4 -21 -11 l-20 -25 5
35 6 35 -13 -32 c-19 -49 -31 -53 -24 -8 4 28 3 35 -4 23 -5 -9 -8 -43 -7 -74
3 -56 2 -58 -31 -81 -19 -13 -46 -26 -60 -29 -14 -3 -34 -10 -44 -15 -10 -6
-48 -19 -84 -30 -65 -21 -92 -20 -54 1 17 8 91 137 91 157 0 2 -10 3 -22 1
-17 -2 -24 -11 -26 -30 -2 -16 -9 -28 -18 -28 -8 0 -14 -6 -14 -13 0 -21 -30
-58 -42 -51 -7 4 -6 9 3 14 10 7 10 12 -1 25 -10 12 -25 16 -52 13 -21 -2 -38
-1 -38 2 0 4 30 31 66 60 37 30 72 60 79 67 7 6 15 10 18 7 2 -3 17 9 31 27
32 38 21 65 -14 34 -12 -11 -27 -20 -35 -21 -48 -7 -98 -42 -135 -95 -22 -31
-40 -62 -40 -67 0 -5 -7 -15 -15 -22 -18 -15 -20 1 -2 19 10 10 9 11 -5 6 -15
-6 -18 -1 -18 29 0 20 -4 36 -9 36 -15 0 -75 -62 -93 -98 -16 -31 -58 -46 -58
-21 0 5 -6 7 -12 3 -10 -5 -10 -4 -1 6 10 11 15 11 28 0 10 -8 15 -9 15 -1 0
17 -51 26 -61 10 -6 -10 -9 -11 -9 -1 0 7 18 48 40 92 43 85 44 90 32 90 -5 0
-18 -24 -31 -54 -21 -52 -51 -91 -51 -68 0 6 4 14 10 17 13 8 13 35 0 35 -5 0
-10 -7 -10 -16 0 -8 -5 -12 -10 -9 -6 4 -7 11 -4 17 7 12 -31 7 -71 -8 -25
-10 91 93 125 111 14 7 86 18 160 25 165 14 253 31 361 70 45 17 84 30 86 30
1 0 3 5 3 10 0 6 -21 10 -47 9 -35 0 -43 -3 -28 -9 53 -22 -206 -95 -315 -88
-47 3 -49 4 -29 16 11 8 18 9 14 3 -3 -6 -3 -11 0 -11 9 0 30 23 37 40 3 8 44
38 92 65 75 44 107 75 76 75 -27 0 -153 -74 -194 -115 -44 -43 -65 -57 -51
-35 9 15 -1 12 -46 -11 -23 -11 -43 -19 -45 -16 -3 3 142 125 205 172 18 13
66 28 130 39 122 21 231 56 323 102 64 32 76 43 62 56 -7 8 -113 -16 -207 -48
-81 -27 -111 -27 -59 0 43 22 92 66 92 82 0 8 -57 -24 -139 -80 -79 -53 -142
-89 -144 -83 -2 7 -50 -32 -107 -86 -57 -53 -108 -97 -114 -97 -6 1 12 20 39
43 28 23 89 80 138 126 48 47 87 81 87 76 0 -5 -10 -20 -22 -34 -13 -14 16 11
64 56 95 90 118 104 263 158 123 46 202 85 278 138 57 40 77 74 37 63 -11 -3
-30 -9 -42 -12 -41 -12 -90 -35 -85 -40 3 -3 18 1 34 9 15 8 44 18 63 21 l35
7 -30 -26 c-16 -14 -50 -37 -75 -51 -45 -26 -227 -104 -239 -104 -3 1 28 19
69 40 86 45 89 52 6 15 -87 -38 -66 -20 34 30 50 25 90 47 90 50 0 6 -90 -35
-184 -84 -118 -61 -117 -39 2 30 68 40 112 77 112 95 0 18 -14 18 -30 -1 -24
-28 -111 -98 -116 -92 -3 3 19 26 48 53 106 95 264 261 302 317 50 73 39 92
-25 43 -38 -29 -190 -193 -234 -251 -33 -45 -12 5 30 69 46 71 54 91 33 84 -7
-3 -25 -29 -40 -59 -30 -59 -36 -49 -12 20 8 24 13 46 10 48 -2 2 -16 -33 -31
-78 -25 -78 -51 -139 -59 -139 -10 0 141 441 156 455 10 10 6 -60 -7 -125 l-6
-25 11 25 c17 38 25 150 12 150 -16 0 -24 -18 -86 -191 -86 -243 -166 -423
-122 -274 8 26 17 73 20 104 l6 56 -13 -40 c-7 -22 -16 -35 -18 -30 -3 6 -4 4
-2 -3 4 -16 -12 -48 -43 -85 -24 -28 -24 -28 -23 -5 0 13 4 41 9 63 l9 40 -3
-47 c-2 -26 0 -45 5 -42 11 6 10 68 0 104 -7 22 -9 19 -24 -29 -10 -30 -18
-71 -18 -90 -1 -20 -3 -28 -6 -18 -6 24 -23 21 -23 -4 0 -22 -17 -58 -35 -74
-15 -14 -65 -82 -65 -90 0 -3 4 -3 10 0 5 3 7 0 4 -8 -3 -8 -14 -17 -25 -20
-24 -6 -25 14 -3 74 22 60 54 195 54 225 0 16 -5 24 -12 22 -17 -6 -77 -127
-77 -153 1 -12 5 -6 10 14 17 56 21 27 5 -35 -8 -33 -18 -79 -22 -104 -6 -39
-8 -42 -14 -20 -5 20 -8 15 -14 -27 -3 -29 -10 -53 -15 -53 -4 0 -14 -11 -21
-25 -7 -13 -16 -22 -20 -20 -13 8 -33 -24 -26 -40 3 -9 2 -13 -4 -10 -5 3 -26
-20 -47 -52 -20 -32 -38 -53 -40 -47 -2 6 12 44 31 85 36 77 38 114 4 60 -29
-45 -38 -38 -22 17 8 26 20 69 25 95 7 29 18 51 27 54 17 6 61 52 62 64 0 14
-45 17 -60 4 -8 -7 -45 -25 -83 -39 -37 -14 -83 -37 -102 -52 -19 -14 -35 -24
-35 -22 0 13 61 152 84 191 20 34 38 50 77 66 27 12 47 26 44 31 -7 12 47 22
79 14 16 -4 26 -2 26 5 0 12 -11 14 -49 11 -14 -1 -21 2 -17 9 4 6 14 11 22
11 8 0 14 5 14 10 0 6 5 10 10 10 6 0 9 -6 8 -12 -2 -8 7 -13 22 -13 16 0 26
6 28 18 2 12 -3 17 -17 17 -24 0 -25 3 -10 33 10 22 10 22 -8 2 -11 -11 -29
-26 -42 -33 -21 -12 -23 -12 -18 2 12 30 -19 16 -67 -30 -26 -25 -50 -44 -52
-42 -6 7 96 223 114 239 9 9 40 29 69 44 50 26 53 27 77 11 30 -19 56 -20 91
-4 43 19 27 47 -28 49 -21 0 -20 1 3 10 20 8 22 12 10 19 -9 5 -19 5 -27 -2
-19 -16 -16 0 8 33 11 16 16 29 10 29 -6 0 -22 -20 -37 -45 -28 -49 -50 -61
-34 -19 14 37 13 49 -4 35 -8 -7 -18 -25 -21 -41 -4 -19 -21 -38 -53 -59 -25
-16 -48 -28 -50 -26 -6 6 86 176 107 197 9 10 41 26 71 36 33 11 56 26 58 35
4 22 -26 22 -56 1 -32 -22 -38 -11 -10 20 33 37 92 47 142 25 41 -18 68 -16
60 5 -2 6 -14 16 -26 21 -33 16 -24 27 46 55 67 25 106 51 106 70 0 17 -44 11
-80 -12 -59 -37 -80 -47 -80 -38 0 5 9 14 20 20 20 11 28 40 11 40 -13 0 -58
-55 -66 -80 -8 -24 -105 -77 -105 -58 0 7 33 58 73 113 67 92 76 101 118 111
51 13 104 38 114 55 4 6 2 16 -4 22 -9 9 -11 8 -6 -5 8 -20 -5 -24 -22 -7 -9
9 -21 6 -47 -9 -20 -12 -36 -18 -36 -14 0 20 31 45 104 84 77 42 105 68 71 68
-9 0 -30 -7 -46 -16 -17 -8 -33 -13 -35 -11 -3 3 7 22 21 43 27 40 41 81 31
91 -11 11 -47 -30 -77 -87 l-29 -55 1 40 c3 74 0 95 -16 95 -12 0 -15 -18 -15
-97 -1 -74 -5 -103 -16 -118 -15 -19 -16 -16 -10 35 8 63 1 90 -22 90 -13 0
-14 -12 -9 -78 7 -87 -3 -116 -72 -209 -58 -79 -72 -45 -21 52 32 60 38 89 18
83 -7 -3 -18 -22 -25 -44 l-11 -39 -1 53 c-1 28 -5 52 -10 52 -5 0 -9 -14 -9
-30 1 -17 -2 -33 -5 -37 -4 -3 -7 15 -7 41 0 29 4 45 10 41 6 -3 10 1 10 9 0
23 -28 20 -35 -4 -3 -11 -4 -23 -2 -27 3 -5 8 -36 11 -70 4 -44 3 -63 -5 -63
-13 0 -38 30 -38 45 -1 6 8 -1 19 -15 l20 -25 -12 35 c-6 19 -13 41 -15 49 -5
20 -20 2 -27 -35 -5 -22 -1 -37 13 -56 14 -17 17 -28 9 -36 -7 -7 -2 -15 16
-27 14 -10 26 -22 26 -27 0 -11 -80 -148 -86 -148 -3 0 -4 17 -3 38 1 48 -13
104 -29 110 -18 6 -25 -24 -13 -59 9 -26 8 -30 -4 -25 -32 12 -25 -27 16 -84
9 -12 4 -28 -21 -70 -18 -30 -44 -75 -57 -100 l-24 -45 6 60 c3 33 8 68 11 78
3 9 1 17 -4 17 -4 0 -13 -17 -18 -37 -9 -34 -10 -28 -17 61 -7 101 -19 134
-38 106 -6 -9 -8 -44 -4 -83 5 -65 4 -68 -15 -62 -30 10 -26 -17 15 -89 19
-35 35 -73 35 -85 0 -12 -21 -62 -46 -112 -25 -50 -43 -97 -40 -105 3 -8 1
-13 -4 -11 -5 1 -16 -7 -24 -18 -15 -19 -15 -19 -15 15 0 19 3 52 8 73 5 20 5
39 1 42 -4 3 -11 -11 -14 -30 -4 -19 -11 -35 -15 -35 -12 0 -1 91 14 115 6 11
15 32 18 47 9 33 -12 50 -27 23 -15 -27 -57 -65 -70 -65 -6 0 -1 8 11 18 15
12 22 27 21 50 -1 34 -12 42 -22 17 -3 -8 -1 -15 4 -15 6 0 10 -5 10 -11 0 -5
-4 -8 -9 -4 -6 3 -14 -3 -20 -12 -8 -16 -10 -16 -16 -2 -3 8 -1 28 5 43 5 15
10 48 10 74 0 46 15 159 26 195 3 10 20 24 37 31 30 14 31 14 7 15 l-25 1 29
15 c37 19 52 19 36 0 -11 -13 -10 -14 2 -10 22 9 60 64 52 76 -3 6 -15 8 -26
6 -15 -4 -18 -2 -14 11 3 9 -5 4 -19 -11 -14 -15 -25 -35 -25 -43 0 -8 -4 -14
-9 -14 -6 0 -6 12 1 31 6 16 8 33 5 36 -3 3 -9 -6 -13 -21 -11 -44 -24 -29
-19 22 24 217 26 224 72 269 24 24 49 43 56 43 6 0 23 3 37 6 24 5 24 5 6 -10
-11 -9 -31 -16 -45 -16 -22 -1 -23 -2 -9 -10 11 -7 25 -5 47 7 41 24 41 47 1
41 -40 -6 -38 3 7 27 42 22 57 55 25 55 -11 0 -25 -7 -32 -15 -8 -9 -9 -15 -2
-15 6 0 14 5 17 10 8 13 25 13 25 0 0 -11 -61 -39 -71 -34 -4 2 2 21 12 41 20
39 13 61 -15 50 -14 -6 -62 -87 -51 -87 2 0 14 18 25 40 11 22 25 40 31 40 18
0 -2 -44 -37 -80 l-34 -35 0 28 c0 42 21 170 31 189 5 9 18 20 29 23 11 3 20
13 20 21 0 13 2 13 16 0 8 -9 23 -16 32 -16 14 1 14 2 -3 12 -19 11 -19 11 0
19 18 7 17 8 -5 9 -20 1 -14 7 33 31 31 16 57 36 57 44 0 20 -34 19 -51 -2
-13 -15 -12 -15 9 -4 13 7 26 10 29 8 2 -3 -5 -11 -17 -17 -12 -6 -24 -9 -27
-6 -4 3 -12 1 -20 -6 -25 -20 -23 -2 3 25 14 16 23 35 20 43 -7 19 -21 18 -37
-3 -11 -15 -11 -16 1 -5 34 30 40 7 7 -28 -13 -14 -38 -46 -57 -70 -18 -25
-29 -36 -25 -25 5 11 8 33 7 48 -1 16 5 56 13 90 16 68 45 101 82 92 24 -5 85
24 80 39 -2 6 -9 12 -17 14 -8 3 -10 0 -5 -8 8 -13 -10 -30 -32 -30 -8 0 -5
12 8 35 20 33 20 35 3 28 -17 -6 -17 -5 -5 11 8 10 10 20 5 25 -5 5 -23 -13
-42 -41 -27 -40 -29 -47 -12 -38 11 6 20 7 20 2 0 -10 -50 -35 -57 -28 -2 2 4
19 14 36 10 18 24 44 32 57 7 14 22 28 32 30 22 6 26 23 5 23 -7 0 -26 -18
-41 -40 -15 -22 -30 -39 -32 -37 -8 8 18 109 34 133 25 38 111 72 88 35 -3 -6
-14 -11 -23 -11 -9 0 -24 -5 -32 -11 -11 -8 -8 -9 15 -4 30 7 65 31 65 46 0 5
-11 11 -25 15 -20 5 -23 9 -15 19 6 7 7 16 3 18 -5 3 -19 -10 -32 -29 -13 -19
-27 -34 -31 -34 -4 0 -4 20 0 45 7 47 42 95 68 95 8 0 12 6 9 14 -3 8 -1 17 6
20 7 2 4 5 -7 5 -15 1 -16 4 -6 16 15 18 -1 20 -18 3 -9 -9 -12 -8 -12 4 0 17
19 36 54 53 21 10 36 55 18 55 -5 0 -17 -10 -28 -22 l-19 -23 23 19 c18 16 22
17 22 4 0 -16 -20 -28 -46 -28 -11 0 -8 12 11 50 14 27 25 56 25 63 0 20 -26
41 -35 27 -3 -5 -1 -10 4 -10 13 0 15 -47 2 -55 -5 -3 -12 7 -14 22 l-4 28 -2
-30 c-2 -40 -21 -71 -21 -35 0 32 -15 56 -24 41 -4 -6 -3 -11 3 -11 5 0 9 -8
9 -17 -1 -10 2 -34 6 -53 l7 -35 -20 25 c-11 14 -21 29 -21 34 0 6 -5 5 -11
-1 -7 -7 -3 -18 15 -36 27 -27 37 -87 15 -87 -6 0 -9 6 -6 13 3 7 -1 24 -8 36
-9 18 -14 21 -20 10 -5 -7 -4 -14 3 -17 7 -2 12 -8 12 -13 0 -6 -4 -7 -10 -4
-15 10 -12 -11 4 -24 17 -15 16 -109 -1 -119 -6 -4 -13 -25 -15 -47 -2 -22 -7
-39 -13 -38 -5 1 -10 -20 -10 -45 0 -57 -24 -144 -37 -136 -5 3 -6 23 -3 45 7
42 -1 99 -15 99 -5 0 -4 -15 1 -32 5 -18 9 -42 9 -53 -1 -16 -4 -14 -17 10
-14 24 -18 26 -21 13 -2 -10 -13 -18 -25 -19 -12 0 -16 -3 -9 -6 6 -2 12 -9
12 -14 0 -6 -6 -7 -12 -4 -7 4 -5 0 6 -9 10 -8 15 -19 12 -24 -3 -6 8 -22 26
-37 l32 -27 -13 -76 c-7 -43 -17 -81 -22 -86 -5 -6 -9 -23 -9 -38 0 -15 -3
-28 -7 -28 -13 1 -46 51 -38 58 3 3 10 0 15 -8 17 -27 20 -3 5 40 -17 48 -19
80 -6 80 5 0 14 -24 20 -52 l10 -53 -4 49 c-9 86 -43 98 -48 17 l-2 -42 -27
31 c-16 17 -28 38 -28 48 1 13 7 10 25 -13 28 -34 33 -27 9 10 -9 14 -23 25
-30 25 -22 0 -16 -41 9 -68 21 -23 21 -24 2 -22 -35 4 -45 0 -45 -16 0 -8 19
-24 45 -35 45 -20 64 -46 24 -34 -15 5 -19 4 -14 -5 4 -6 18 -10 30 -7 40 7
51 -29 36 -115 -7 -40 -18 -90 -24 -111 -10 -38 -11 -38 -23 -15 -8 13 -13 34
-14 47 0 15 -5 21 -14 18 -7 -3 -19 0 -26 6 -6 7 5 -19 25 -56 21 -37 35 -71
31 -74 -3 -3 -15 16 -27 43 -12 27 -23 50 -24 52 -1 1 -13 -2 -26 -7 -17 -7
-19 -10 -7 -10 10 -1 22 -10 28 -22 19 -35 0 -36 -31 -1 -16 18 -29 26 -29 19
0 -15 51 -67 66 -67 23 0 44 -38 43 -76 0 -35 -22 -157 -46 -254 l-9 -35 -13
48 c-15 51 -36 78 -25 30 5 -23 4 -26 -7 -15 -15 14 -49 16 -49 3 0 -16 18
-22 22 -9 3 7 12 0 23 -17 10 -17 28 -41 39 -55 11 -14 1 -7 -24 15 -45 41
-39 24 13 -32 l29 -31 -11 -101 c-6 -56 -11 -108 -11 -116 0 -26 -18 -16 -29
17 -13 37 -39 68 -56 68 -25 0 -21 -109 5 -125 5 -3 5 7 -1 24 -12 34 -9 81 6
84 13 3 57 -109 53 -136 -3 -16 -9 -7 -22 31 -10 29 -20 51 -23 48 -3 -3 3
-25 12 -50 9 -24 15 -50 12 -58 -3 -8 -9 -2 -16 16 -6 16 -14 26 -17 23 -3 -3
6 -28 21 -57 l26 -51 -14 -147 c-9 -96 -17 -140 -22 -127 -4 11 -15 28 -23 38
-8 9 -18 34 -22 55 -6 31 -8 32 -9 10 0 -16 -5 -28 -10 -28 -5 0 -12 40 -15
88 -7 86 -18 124 -29 105 -4 -6 -2 -27 4 -47 19 -67 4 -72 -19 -7 -21 62 -46
101 -64 101 -16 0 -6 -46 26 -125 18 -44 33 -81 32 -82 -1 -1 -28 8 -61 19
-33 11 -98 28 -143 38 -46 10 -86 21 -89 24 -3 3 33 92 80 198 47 106 105 238
128 292 41 93 46 100 79 109 76 19 120 93 100 169 -24 88 -187 198 -295 198
-96 0 -154 -65 -140 -158 6 -37 3 -50 -21 -85 -43 -66 -256 -346 -393 -519
l-125 -158 -84 0 -84 0 7 93 c12 170 19 190 97 259 49 43 68 67 68 85 0 13 -4
22 -10 18 -5 -3 -7 -13 -4 -23 5 -14 4 -14 -4 -3 -13 19 -31 5 -75 -58 -28
-40 -32 -43 -35 -24 -3 22 41 188 75 278 15 39 28 55 64 78 l47 28 38 -20 c21
-12 44 -21 51 -21 18 0 16 27 -3 34 -30 11 -39 5 -14 -9 29 -16 19 -20 -11 -4
-28 14 -14 29 27 29 21 0 33 4 29 10 -3 6 1 10 10 10 9 0 13 -5 9 -11 -4 -7 1
-10 11 -7 34 6 27 27 -10 34 -35 6 -35 7 -15 21 25 18 66 13 62 -7 -3 -11 -1
-12 8 -3 35 34 -36 44 -88 13 -43 -26 -45 -25 -27 9 9 19 11 32 5 36 -6 3 -10
-1 -10 -10 0 -9 -9 -28 -20 -42 -24 -31 -27 -8 -3 27 l17 25 -22 -19 c-12 -10
-26 -33 -32 -50 -7 -22 -22 -38 -46 -50 -20 -9 -38 -15 -41 -13 -7 7 59 191
93 258 25 51 43 72 76 92 40 23 45 24 77 11 37 -15 71 -18 71 -6 0 14 -24 32
-43 32 -11 0 -15 5 -11 11 6 10 23 9 87 -7 22 -5 27 -3 27 12 0 16 -2 17 -10
4 -8 -13 -11 -12 -24 5 -14 18 -13 22 9 40 26 21 33 45 14 45 -5 0 -7 -5 -4
-10 6 -10 -9 -19 -39 -24 -8 -1 -25 -11 -37 -22 -22 -19 -22 -19 -15 1 18 45
18 55 2 55 -16 0 -20 -7 -46 -76 -10 -27 -84 -84 -94 -73 -8 9 66 186 83 199
10 8 35 28 55 43 36 28 48 57 23 57 -8 0 -24 -11 -37 -25 -29 -31 -15 -33 19
-2 l26 22 -24 -27 c-31 -35 -65 -34 -56 2 11 44 34 69 89 95 52 25 75 48 56
60 -4 3 -16 2 -26 -2 -16 -6 -16 -7 2 -13 17 -6 15 -9 -14 -24 -33 -17 -41
-11 -19 14 6 8 -3 2 -20 -14 -18 -17 -33 -28 -33 -25 -1 2 -2 28 -4 57 -3 55
-16 79 -35 68 -15 -9 -14 -41 3 -96 12 -40 12 -52 -5 -104 -26 -86 -39 -92
-39 -21 0 33 -5 67 -10 75 -7 11 -8 5 -4 -20 6 -33 6 -34 -9 -15 l-16 20 -1
-20 c0 -17 -2 -17 -10 -5 -14 22 -13 73 1 64 7 -4 10 -1 7 6 -7 22 -26 22 -33
1 -8 -26 13 -89 40 -119 34 -40 27 -109 -25 -236 -25 -61 -51 -112 -59 -114
-14 -5 -14 -3 4 138 11 86 -30 96 -44 10 -2 -11 -31 54 -31 69 1 11 5 8 15 -9
10 -18 14 -20 15 -8 0 20 -28 50 -41 43 -14 -9 -11 -26 15 -80 14 -27 21 -52
15 -53 -5 -2 -7 -8 -3 -13 3 -5 1 -9 -5 -9 -16 0 -22 18 -9 23 10 4 9 8 -2 16
-19 14 -40 14 -40 0 0 -5 20 -28 44 -50 65 -60 67 -90 13 -237 -50 -132 -98
-283 -123 -387 -9 -38 -20 -74 -24 -78 -3 -4 -12 72 -19 170 -7 98 -16 214
-22 258 -24 204 -26 263 -6 315 10 28 23 50 28 50 16 0 61 78 56 97 -4 16 -5
16 -6 -2 -1 -11 -10 -31 -21 -45 -24 -30 -25 -24 -5 24 18 42 12 48 -9 9 -9
-16 -15 -21 -16 -13 0 22 29 60 46 60 8 0 12 5 8 11 -9 15 -64 -39 -64 -63 0
-28 -31 -118 -40 -118 -12 0 -32 159 -34 259 -1 80 1 91 27 129 24 37 32 42
65 43 29 0 33 2 17 9 -19 7 -19 8 -1 15 10 5 21 3 25 -3 4 -6 17 1 35 19 25
25 27 29 12 35 -10 4 -33 0 -52 -9 -39 -19 -46 -5 -9 19 14 9 25 21 25 27 0 7
-4 7 -12 -1 -22 -22 -29 -12 -13 19 12 22 21 29 33 24 13 -5 14 -4 5 6 -16 16
-41 -4 -62 -51 l-15 -35 -4 28 c-3 28 -16 35 -28 15 -4 -7 -3 -8 4 -4 8 5 12
-3 12 -23 0 -33 -16 -42 -23 -13 -3 9 -3 0 -2 -21 2 -26 -5 -52 -23 -85 l-27
-47 -7 40 c-4 22 -7 98 -7 169 -1 121 1 132 24 173 21 34 31 43 54 43 44 0 91
20 91 38 0 14 -2 14 -9 3 -6 -9 -11 -10 -15 -2 -4 6 -18 11 -31 11 -26 0 -35
17 -35 67 0 31 -2 34 -16 22 -12 -10 -15 -24 -10 -57 5 -36 1 -52 -20 -88 -14
-24 -30 -44 -36 -44 -14 0 1 250 15 269 6 7 35 28 65 47 35 23 52 40 50 51 -7
39 -43 19 -91 -51 -11 -15 -21 -26 -23 -24 -7 8 20 144 34 165 8 13 31 27 52
33 20 5 45 19 55 30 23 26 14 50 -17 42 -19 -5 -20 -7 -5 -10 21 -4 19 -33 -2
-40 -8 -3 -11 -1 -8 4 2 5 -1 15 -9 22 -11 10 -18 5 -39 -28 -14 -22 -30 -40
-36 -40 -14 0 -1 66 23 113 11 21 18 50 16 64 -3 28 -22 41 -33 24z m-75 -66
c6 -8 8 -20 4 -26 -5 -9 -11 -7 -21 6 -23 33 -9 51 17 20z m150 -239 c0 -2 -7
-9 -15 -16 -13 -11 -14 -10 -9 4 5 14 24 23 24 12z m-7 -303 c-7 -2 -19 -2
-25 0 -7 3 -2 5 12 5 14 0 19 -2 13 -5z m-262 -36 c4 -15 6 -27 4 -27 -10 0
-35 33 -35 47 0 24 23 9 31 -20z m1832 -57 c-3 -11 -9 -20 -14 -20 -11 0 -11
3 -3 24 9 23 23 20 17 -4z m-1483 -204 c0 -2 -7 -7 -16 -10 -8 -3 -12 -2 -9 4
6 10 25 14 25 6z m310 -82 c0 -14 -4 -23 -10 -19 -5 3 -10 15 -10 26 0 10 5
19 10 19 6 0 10 -12 10 -26z m-1221 -37 c8 -11 6 -13 -12 -11 -30 3 -29 3 -22
14 8 14 20 13 34 -3z m2250 -71 c1 -5 -6 -3 -14 4 -8 7 -15 27 -14 44 l1 31
13 -35 c7 -19 14 -39 14 -44z m-2113 -131 c-3 -8 0 -15 6 -15 6 0 9 -3 5 -6
-3 -4 -13 -4 -22 0 -13 5 -14 8 -3 20 17 20 22 20 14 1z m1995 -56 c5 -11 6
-19 2 -19 -16 0 -53 31 -48 40 8 13 34 1 46 -21z m-885 -41 c-18 -26 -22 -17
-5 14 6 11 13 17 16 15 3 -3 -2 -16 -11 -29z m-206 -46 c0 -9 -5 -24 -10 -32
-7 -11 -10 -5 -10 23 0 23 4 36 10 32 6 -3 10 -14 10 -23z m-965 8 c3 -5 -1
-10 -9 -10 -8 0 -18 5 -21 10 -3 6 1 10 9 10 8 0 18 -4 21 -10z m1205 -50 c8
-5 11 -10 5 -10 -5 0 -17 5 -25 10 -8 5 -10 10 -5 10 6 0 17 -5 25 -10z
m-1205 -10 c-28 -12 -47 -12 -40 0 3 6 18 10 33 9 24 0 25 -1 7 -9z m95 -25
c0 -2 -10 -10 -22 -16 -21 -11 -22 -11 -9 4 13 16 31 23 31 12z m320 -5 c0 -5
-5 -10 -11 -10 -5 0 -7 5 -4 10 3 6 8 10 11 10 2 0 4 -4 4 -10z m2386 -97 c-8
-16 -22 -36 -32 -44 -16 -13 -16 -11 1 21 9 19 22 41 28 48 17 21 19 5 3 -25z
m-99 -45 c-2 -13 -4 -3 -4 22 0 25 2 35 4 23 2 -13 2 -33 0 -45z m-2486 5 c13
-15 12 -15 -8 -4 -24 12 -29 21 -14 21 5 0 15 -7 22 -17z m1507 -33 c179 -95
217 -250 74 -298 -31 -11 -35 -9 -58 18 -22 26 -144 110 -160 110 -3 0 20 -20
53 -44 32 -24 70 -57 86 -73 l28 -30 -100 -229 c-54 -126 -120 -274 -146 -329
-26 -55 -71 -156 -102 -225 -30 -69 -58 -128 -62 -133 -4 -4 -31 -10 -60 -14
l-53 -6 22 42 c12 24 24 41 26 38 3 -3 -2 -17 -12 -31 -9 -15 -14 -29 -12 -32
9 -9 39 8 50 30 l11 21 -24 -20 -23 -20 17 27 c22 35 21 35 -5 34 -16 -1 -28
-14 -43 -44 -11 -23 -27 -44 -35 -46 -48 -14 -444 -26 -517 -17 l-42 6 62 81
c34 45 134 173 221 285 231 295 411 529 493 643 l72 100 -6 56 c-6 66 4 92 50
121 45 28 118 20 195 -21z m427 -10 c-10 -11 -23 -20 -28 -20 -6 0 -2 9 8 20
10 11 23 20 28 20 6 0 2 -9 -8 -20z m492 -17 c-3 -10 -5 -4 -5 12 0 17 2 24 5
18 2 -7 2 -21 0 -30z m203 23 c0 -8 -71 -48 -76 -43 -3 2 10 14 28 26 32 20
48 26 48 17z m-2630 -25 c0 -5 -9 -7 -20 -4 -11 3 -20 7 -20 9 0 2 9 4 20 4
11 0 20 -4 20 -9z m80 -50 c0 -5 -7 -12 -16 -15 -14 -5 -15 -4 -4 9 14 17 20
19 20 6z m2440 -66 c-7 -8 -20 -15 -29 -15 -13 1 -13 3 3 15 26 19 42 19 26 0z
m10 -151 c-19 -8 -42 -20 -50 -27 -9 -7 -3 0 12 16 16 15 38 27 51 27 18 -1
15 -4 -13 -16z m-2339 -11 c13 -16 12 -17 -3 -4 -10 7 -18 15 -18 17 0 8 8 3
21 -13z m1769 -41 c0 -5 -9 -17 -20 -27 -12 -11 -20 -13 -20 -6 0 7 -4 9 -10
6 -5 -3 -10 -1 -10 5 0 6 10 15 23 20 29 11 37 12 37 2z m195 -12 c3 -5 1 -10
-4 -10 -6 0 -11 5 -11 10 0 6 2 10 4 10 3 0 8 -4 11 -10z m2 -42 c-3 -8 -6 -5
-6 6 -1 11 2 17 5 13 3 -3 4 -12 1 -19z m-1483 -73 c-4 -8 -11 -15 -16 -15 -6
0 -5 6 2 15 7 8 14 15 16 15 2 0 1 -7 -2 -15z m1338 -59 c1 -35 0 -77 -3 -92
-6 -26 -7 -25 -8 11 -1 22 -4 64 -7 93 -5 34 -3 52 4 52 6 0 12 -28 14 -64z
m278 54 c-8 -5 -19 -10 -25 -10 -5 0 -3 5 5 10 8 5 20 10 25 10 6 0 3 -5 -5
-10z m-306 -136 c3 -8 2 -12 -4 -9 -6 3 -10 10 -10 16 0 14 7 11 14 -7z
m-1444 -69 l-7 -60 -2 56 c0 31 2 59 6 62 10 11 10 7 3 -58z m1740 -27 c-13
-5 -31 -6 -39 -2 -13 5 -10 8 9 14 35 9 60 -1 30 -12z m-2178 -30 c-7 -7 -12
-8 -12 -2 0 14 12 26 19 19 2 -3 -1 -11 -7 -17z m425 -55 c-3 -10 -5 -4 -5 12
0 17 2 24 5 18 2 -7 2 -21 0 -30z m1308 -43 c-8 -16 -15 -42 -15 -58 0 -19 -6
-32 -16 -36 -9 -4 -14 -9 -10 -13 3 -3 15 2 27 13 21 19 21 19 17 -1 -3 -11 4
-44 15 -73 12 -35 17 -65 12 -85 -3 -18 -6 -43 -7 -56 0 -14 -3 -19 -7 -13 -4
7 -24 -22 -46 -69 -22 -44 -43 -83 -47 -86 -5 -2 -8 30 -8 71 0 44 4 76 10 76
6 0 10 -12 10 -27 0 -38 6 -25 13 27 5 39 4 43 -8 27 -22 -30 -27 -3 -15 82 6
43 10 83 9 87 -2 5 1 39 5 75 8 62 10 66 39 76 18 6 33 11 35 12 1 0 -4 -12
-13 -29z m995 22 c0 -28 -176 -226 -258 -290 l-42 -34 35 54 c55 85 234 275
263 278 1 0 2 -4 2 -8z m-1246 -86 c9 -27 16 -57 16 -65 -1 -16 -41 73 -55
119 -14 48 21 -1 39 -54z m268 37 c-3 -16 -7 -22 -10 -15 -4 13 4 42 11 42 2
0 2 -12 -1 -27z m-1352 -43 c0 -16 -4 -30 -9 -30 -10 0 -22 40 -15 52 11 18
24 6 24 -22z m184 21 c3 -4 -5 -18 -18 -30 -19 -18 -33 -22 -75 -19 -45 3 -51
6 -51 25 0 12 6 24 13 26 21 9 126 7 131 -2z m-234 -10 c0 -5 3 -16 6 -25 5
-14 -8 -16 -102 -17 -60 0 -132 -4 -160 -8 -49 -7 -51 -6 -61 20 -11 27 -10
28 26 32 77 8 291 7 291 -2z m-336 -23 c23 -33 20 -38 -21 -38 -123 -1 -443
-64 -424 -83 6 -6 11 -16 11 -21 -1 -10 -24 22 -25 34 0 3 -6 15 -13 26 -11
21 -8 23 71 42 79 20 250 48 332 55 22 2 43 4 47 5 4 1 14 -8 22 -20z m1279
-38 c160 -35 277 -88 299 -136 30 -66 -77 -139 -283 -192 -38 -10 -67 -21 -63
-24 3 -3 45 5 92 18 48 13 95 26 105 29 32 8 120 59 131 77 22 35 29 17 22
-54 -19 -207 -91 -467 -158 -573 -7 -11 -14 -22 -16 -24 -1 -3 -15 7 -30 21
-15 14 -38 29 -52 33 -14 4 -39 23 -57 44 -17 20 -34 33 -38 29 -16 -15 -41
-136 -39 -188 4 -94 6 -98 67 -120 15 -5 27 -17 27 -26 0 -8 -36 -51 -80 -95
-65 -64 -97 -87 -172 -122 -51 -25 -122 -51 -158 -60 -36 -9 -85 -20 -110 -26
-25 -6 -112 -16 -195 -23 -268 -21 -561 23 -740 111 -142 70 -295 231 -378
396 -91 184 -162 483 -155 655 1 36 -1 70 -4 76 -15 23 31 72 95 104 75 37
128 38 133 3 3 -14 -3 -24 -15 -28 -31 -10 -54 -42 -48 -67 8 -31 71 -61 196
-93 398 -101 1174 -101 1584 0 148 37 204 76 183 130 -8 22 -97 61 -191 85
-43 11 -81 22 -83 25 -6 6 18 35 29 35 5 0 51 -9 102 -20z m-929 -42 c9 -80 7
-168 -4 -168 -5 0 -10 5 -10 10 0 6 -7 10 -15 10 -18 0 -20 -16 -2 -23 9 -4 9
-8 -2 -15 -7 -5 -10 -15 -7 -21 7 -10 -12 -15 -51 -14 -7 0 -12 -2 -11 -6 3
-26 -5 -37 -26 -36 -24 0 -51 15 -28 15 7 0 12 4 12 9 0 5 -7 8 -17 7 -17 -1
-91 132 -93 169 -1 18 -2 18 -10 3 -8 -12 -1 -34 24 -85 19 -37 38 -78 41 -91
l7 -24 -99 7 c-113 7 -161 14 -168 25 -3 4 4 10 15 13 12 3 24 -1 30 -11 5
-10 10 -12 10 -5 0 6 -5 15 -10 18 -6 4 -8 9 -6 13 2 4 -17 6 -42 6 -60 -2
-104 5 -97 16 3 5 -9 5 -27 0 -17 -6 -33 -9 -34 -7 -8 8 39 48 51 43 8 -3 15
-1 15 4 0 16 -20 22 -35 10 -8 -7 -15 -7 -19 -1 -4 6 -13 8 -21 4 -22 -8 -18
-22 5 -16 23 6 26 -3 6 -23 -19 -19 -23 -18 -36 7 -9 17 -8 23 7 35 10 8 13
13 6 14 -7 0 -13 4 -13 10 0 6 9 6 26 0 35 -14 85 -13 64 0 -8 5 -25 10 -36
10 -12 0 -27 7 -34 15 -9 11 -16 13 -24 5 -5 -5 -13 -10 -17 -10 -11 0 -8 50
4 57 5 3 7 1 4 -4 -9 -15 13 -21 48 -12 17 4 24 7 18 8 -18 1 -16 18 2 25 34
13 155 18 155 6 0 -6 5 -8 10 -5 6 4 8 10 6 14 -3 4 0 8 7 8 7 0 29 4 49 8 36
7 37 6 59 -39 20 -43 50 -79 36 -44 -4 13 1 16 29 14 19 -1 34 2 34 6 0 5 -7
8 -15 8 -21 0 -19 33 3 53 16 15 58 21 168 25 l51 2 7 -52z m135 8 c-12 -20
-24 -35 -27 -32 -3 3 1 12 8 21 7 9 10 18 7 21 -9 9 -27 -33 -22 -49 3 -7 -1
-20 -10 -27 -13 -11 -15 -6 -15 43 l0 56 38 3 c20 2 38 2 40 2 2 -1 -7 -18
-19 -38z m-100 7 c0 -25 -1 -26 -9 -8 -12 27 -12 35 0 35 6 0 10 -12 9 -27z
m1641 17 c0 -5 -4 -10 -10 -10 -5 0 -10 5 -10 10 0 6 5 10 10 10 6 0 10 -4 10
-10z m-1934 -16 c-3 -9 -6 -23 -6 -32 -1 -11 -6 -8 -16 11 -17 31 -26 36 -18
10 5 -15 4 -16 -5 -3 -17 24 -13 30 20 30 24 0 30 -3 25 -16z m1714 -49 c-6
-15 -13 -25 -17 -21 -3 3 0 17 7 31 17 32 24 26 10 -10z m80 20 c-7 -9 -15
-13 -17 -11 -7 7 7 26 19 26 6 0 6 -6 -2 -15z m-30 -19 c0 -2 -8 -10 -17 -17
-16 -13 -17 -12 -4 4 13 16 21 21 21 13z m-490 -36 c13 -8 13 -10 -2 -10 -9 0
-20 5 -23 10 -8 13 5 13 25 0z m-1710 -14 c0 -3 -4 -8 -10 -11 -5 -3 -10 -1
-10 4 0 6 5 11 10 11 6 0 10 -2 10 -4z m1645 -16 c3 -5 1 -10 -4 -10 -6 0 -11
5 -11 10 0 6 2 10 4 10 3 0 8 -4 11 -10z m805 -66 c-17 -49 -24 -36 -9 17 6
24 14 38 16 32 3 -7 -1 -29 -7 -49z m200 29 c-1 -52 -60 -184 -94 -213 -20
-15 -20 -18 3 56 28 89 92 198 91 157z m-2650 -56 c0 -12 0 -11 -24 28 l-17
30 20 -24 c12 -13 21 -28 21 -34z m2698 28 c-6 -14 -13 -23 -15 -21 -5 5 15
46 22 46 3 0 -1 -11 -7 -25z m-113 -35 c-9 -18 -19 -30 -21 -27 -3 3 2 19 11
37 9 18 19 30 21 27 3 -3 -2 -19 -11 -37z m-2483 -12 c-9 -9 -42 -1 -42 12 0
4 12 5 26 2 15 -3 22 -8 16 -14z m113 -9 c-4 -5 -16 -9 -28 -9 -21 1 -21 1 -3
15 20 15 41 11 31 -6z m2075 11 c0 -5 -5 -10 -11 -10 -5 0 -7 5 -4 10 3 6 8
10 11 10 2 0 4 -4 4 -10z m374 -34 c-3 -8 -13 -17 -22 -21 -13 -5 -13 -2 3 15
21 24 26 25 19 6z m-2044 -11 c-7 -9 -15 -13 -17 -11 -7 7 7 26 19 26 6 0 6
-6 -2 -15z m1315 -200 c-9 -30 -21 -55 -27 -55 -5 0 -8 10 -5 23 3 12 14 72
24 132 l18 110 3 -77 c2 -49 -3 -97 -13 -133z m265 199 c0 -6 -65 -34 -77 -34
-9 1 58 39 70 40 4 0 7 -2 7 -6z m335 -67 c-10 -34 -31 -72 -55 -100 -44 -49
-53 -71 -17 -41 21 18 21 18 -2 -8 -13 -15 -29 -24 -35 -22 -7 3 -19 -2 -26
-11 -28 -34 -27 -11 3 56 32 70 138 210 145 191 2 -6 -4 -35 -13 -65z m-4405
-116 c25 -14 47 -29 48 -33 2 -4 13 -8 23 -8 11 0 34 -7 51 -16 l32 -16 -35
-20 -34 -19 62 5 c44 4 71 1 93 -10 17 -9 29 -18 26 -21 -2 -2 -15 1 -28 8
-23 12 -23 12 -4 -9 18 -21 18 -21 -5 -26 -60 -13 -60 -15 1 -11 41 2 76 -2
98 -11 41 -17 45 -17 37 -4 -3 6 1 7 9 4 22 -8 -1 -30 -45 -43 -31 -9 -29 -10
26 -8 43 1 59 -2 57 -11 -1 -6 2 -12 8 -12 5 0 10 -5 10 -11 0 -9 -29 -10
-102 -6 -96 6 -109 9 -193 51 -49 25 -90 50 -90 56 0 6 -25 23 -55 38 -32 17
-54 34 -53 43 1 8 -18 26 -42 41 -28 17 -45 34 -45 46 0 10 -9 27 -21 38 -19
17 -79 100 -79 109 0 2 46 -23 103 -57 56 -34 122 -73 147 -87z m4051 88 c-11
-30 -24 -88 -30 -131 -12 -88 -45 -213 -73 -279 -15 -37 -32 -54 -90 -92 -38
-26 -74 -47 -79 -47 -11 0 6 36 21 45 14 9 70 95 62 95 -5 0 -13 -5 -20 -12
-7 -7 -12 -9 -12 -5 0 16 29 63 49 81 22 20 28 46 11 46 -5 0 -9 -4 -7 -8 2
-10 -62 -86 -68 -80 -3 2 10 20 27 39 17 19 32 43 34 54 1 11 5 35 9 53 10 44
-4 40 -39 -11 l-30 -42 28 25 27 25 -11 -30 c-6 -17 -20 -39 -30 -50 -24 -27
-54 -89 -75 -156 -10 -31 -26 -67 -37 -80 -15 -20 -17 -21 -12 -4 4 11 10 25
14 30 4 6 19 48 35 95 15 47 36 99 47 115 l20 30 -20 -22 c-39 -44 -43 -17
-10 68 l22 57 61 6 c33 4 74 11 92 17 29 9 31 12 20 30 -7 12 -19 18 -30 15
-13 -3 -17 0 -13 11 7 17 9 17 -61 -20 -45 -23 -53 -25 -53 -11 0 25 60 124
75 124 17 0 102 40 134 62 14 10 26 16 28 15 1 -2 -6 -28 -16 -58z m-31 47 c0
-2 -7 -7 -16 -10 -8 -3 -12 -2 -9 4 6 10 25 14 25 6z m50 -85 c-24 -87 -36
-106 -27 -42 5 44 37 134 44 127 3 -2 -5 -41 -17 -85z m420 85 c0 -2 -8 -10
-17 -17 -16 -13 -17 -12 -4 4 13 16 21 21 21 13z m-610 -41 c-6 -15 -13 -26
-16 -23 -2 3 0 18 6 33 6 15 13 26 16 23 2 -3 0 -18 -6 -33z m420 -19 c0 -3
-4 -8 -10 -11 -5 -3 -10 -1 -10 4 0 6 5 11 10 11 6 0 10 -2 10 -4z m112 -28
c-7 -7 -12 -8 -12 -2 0 14 12 26 19 19 2 -3 -1 -11 -7 -17z m-177 -59 c-17
-99 -65 -168 -185 -261 -59 -46 -76 -55 -65 -37 30 50 88 133 129 184 27 32
62 81 78 107 37 60 52 62 43 7z m393 -39 c-60 -31 -224 -83 -242 -77 -6 3 9
10 33 16 23 7 41 15 38 17 -3 3 -29 -2 -58 -10 -29 -9 -54 -14 -57 -12 -2 3
52 22 120 44 145 47 154 49 193 50 27 1 24 -2 -27 -28z m-654 1 c3 -5 -3 -11
-15 -14 -16 -4 -18 -3 -8 9 13 16 16 17 23 5z m65 -85 c-26 -71 -34 -68 -13 5
19 62 26 78 31 62 2 -5 -6 -36 -18 -67z m-269 2 c0 -19 -18 -43 -25 -36 -4 3
-2 16 5 27 12 24 20 27 20 9z m-30 -111 c0 -25 -40 -130 -56 -149 -14 -15 -15
-22 -4 -49 12 -27 11 -36 -11 -80 -20 -41 -29 -49 -51 -49 -16 0 -28 5 -28 10
0 6 10 9 23 7 12 -2 16 -2 10 0 -24 8 -12 53 52 198 13 28 28 67 36 88 13 36
29 50 29 24z m24 -29 c-14 -46 -25 -71 -29 -67 -7 8 17 89 27 89 5 0 6 -10 2
-22z m266 -42 c0 -8 -202 -157 -206 -153 -3 3 18 22 46 43 28 22 72 56 98 76
43 34 62 44 62 34z m-552 -57 c-3 -8 -7 -3 -11 10 -4 17 -3 21 5 13 5 -5 8
-16 6 -23z m75 4 c3 -5 1 -17 -4 -28 -4 -11 -8 -15 -8 -8 -1 6 -4 18 -7 27 -6
16 11 23 19 9z m-68 -107 l3 -31 -12 28 c-7 15 -15 25 -17 22 -3 -3 -6 1 -7 8
-1 6 -4 26 -7 42 l-7 30 22 -34 c12 -19 23 -48 25 -65z m39 41 c5 5 6 2 1 -6
-4 -7 -3 -16 3 -20 8 -5 8 -17 3 -36 l-9 -30 -1 32 c-1 17 -5 33 -10 35 -4 2
-11 21 -14 43 l-6 40 12 -33 c7 -18 16 -30 21 -25z m86 18 c14 -26 9 -60 -14
-90 -15 -19 -15 -19 -16 10 0 31 -14 25 -23 -10 -3 -11 -5 -3 -4 18 1 20 6 37
12 37 7 0 9 14 7 35 -3 28 -1 34 10 30 9 -4 21 -17 28 -30z m-2267 -55 c7 0 6
-4 -3 -10 -11 -7 -23 -1 -47 22 -44 43 -42 58 2 19 20 -17 41 -31 48 -31z
m3645 47 c6 3 12 -2 12 -10 0 -24 -11 -47 -22 -47 -6 0 -8 7 -5 15 4 8 2 17
-3 20 -6 4 -10 -2 -10 -12 0 -11 -3 -14 -8 -7 -13 19 -36 22 -71 8 -19 -8 -37
-12 -40 -8 -12 12 34 34 72 34 25 0 36 4 31 11 -4 8 -1 8 12 1 11 -5 25 -7 32
-5z m-648 -32 c-7 -9 -15 -13 -17 -11 -7 7 7 26 19 26 6 0 6 -6 -2 -15z
m-3821 -23 c14 -14 8 -15 -69 -9 -47 3 -78 3 -70 -2 16 -9 90 -25 103 -23 4 1
7 -2 7 -7 0 -16 -81 -22 -180 -14 l-95 8 71 28 c119 46 199 53 233 19z m2921
5 c0 -7 9 -23 20 -37 25 -32 25 -39 1 -37 -11 0 -18 4 -15 8 2 4 -3 23 -11 43
-8 19 -15 38 -15 41 0 12 20 -6 20 -18z m858 11 c-2 -6 -10 -14 -16 -16 -7 -2
-10 2 -6 12 7 18 28 22 22 4z m627 -18 c3 -5 -1 -10 -10 -10 -9 0 -13 5 -10
10 3 6 8 10 10 10 2 0 7 -4 10 -10z m-694 -27 c-12 -20 -14 -14 -5 12 4 9 9
14 11 11 3 -2 0 -13 -6 -23z m-415 -64 c9 -16 -21 -43 -37 -33 -10 6 -7 10 11
15 22 6 21 7 -10 8 -26 1 -31 4 -20 11 20 13 47 13 56 -1z m54 -29 c0 -22 -4
-40 -10 -40 -5 0 -10 18 -10 40 0 22 5 40 10 40 6 0 10 -18 10 -40z m181 11
c-10 -10 -21 -25 -23 -32 -3 -8 -9 -11 -13 -6 -9 7 32 57 47 57 4 0 0 -8 -11
-19z m-445 -13 c10 -16 -69 -84 -147 -127 -34 -19 -60 -29 -58 -24 8 19 169
163 183 163 8 0 18 -5 22 -12z m99 -18 c3 -5 -1 -10 -9 -10 -9 0 -16 5 -16 10
0 6 4 10 9 10 6 0 13 -4 16 -10z m1100 -10 c0 -17 -28 -25 -53 -15 -15 6 -15
8 3 21 24 18 50 14 50 -6z m-1175 7 c0 -2 -10 -12 -22 -23 l-23 -19 19 23 c18
21 26 27 26 19z m175 -9 c14 -6 25 -15 25 -20 0 -8 -17 -1 -50 22 -20 13 -7
13 25 -2z m430 2 c4 -6 -9 -10 -32 -9 -38 1 -38 1 -8 9 17 4 31 8 32 9 1 0 5
-3 8 -9z m-531 -20 c4 -5 -11 -20 -34 -35 -48 -31 -171 -87 -176 -82 -2 2 31
33 73 69 63 53 83 65 103 61 14 -3 29 -9 34 -13z m436 15 c0 -2 -10 -9 -22
-15 -22 -11 -22 -10 -4 4 21 17 26 19 26 11z m156 -23 c-18 -16 -18 -16 -6 6
6 13 14 21 18 18 3 -4 -2 -14 -12 -24z m-505 -3 c16 -8 18 -13 8 -25 -15 -18
-33 -18 -49 1 -23 28 4 44 41 24z m967 -7 c18 -12 4 -44 -17 -38 -28 9 -135
35 -161 39 -14 2 18 5 70 5 52 1 101 -2 108 -6z m-847 -39 c22 -25 22 -26 1
-9 -12 11 -25 16 -28 13 -6 -6 54 -47 68 -47 4 0 3 12 -2 26 -14 35 -13 36 10
24 22 -12 26 -42 8 -58 -7 -5 -33 -13 -58 -16 -25 -4 -58 -10 -75 -13 l-30 -5
28 29 c39 42 34 51 -8 14 -20 -17 -40 -31 -45 -31 -14 0 -12 18 3 27 7 4 21
21 31 36 14 23 23 28 42 23 14 -4 24 -2 24 4 0 15 4 13 31 -17z m338 10 c21
-18 -157 -73 -235 -73 l-37 0 24 26 c42 46 91 62 172 56 40 -2 74 -6 76 -9z
m-509 3 c0 -3 -4 -8 -10 -11 -5 -3 -10 -1 -10 4 0 6 5 11 10 11 6 0 10 -2 10
-4z m290 -5 c0 -5 -7 -12 -16 -15 -22 -9 -24 -8 -24 9 0 8 9 15 20 15 11 0 20
-4 20 -9z m357 -7 c-3 -3 -12 -4 -19 -1 -8 3 -5 6 6 6 11 1 17 -2 13 -5z
m-3360 -10 c-3 -3 -12 -4 -19 -1 -8 3 -5 6 6 6 11 1 17 -2 13 -5z m40 0 c-3
-3 -12 -4 -19 -1 -8 3 -5 6 6 6 11 1 17 -2 13 -5z m2443 -9 c-7 -8 -17 -15
-23 -15 -6 0 -2 7 9 15 25 19 30 19 14 0z m830 5 c-8 -5 -22 -9 -30 -9 -10 0
-8 3 5 9 27 12 43 12 25 0z m-553 -13 c-10 -32 -54 -46 -159 -51 -60 -3 -108
-3 -108 -1 0 10 85 47 123 54 63 11 148 10 144 -2z m1023 3 c0 -5 -7 -7 -15
-4 -8 4 -15 8 -15 10 0 2 7 4 15 4 8 0 15 -4 15 -10z m-595 -20 c-11 -5 -27
-9 -35 -9 -9 0 -8 4 5 9 11 5 27 9 35 9 9 0 8 -4 -5 -9z m669 -39 c34 -37 11
-32 -25 5 -21 23 -26 33 -14 26 11 -5 29 -20 39 -31z m-1214 -10 c0 -11 -99
-21 -120 -12 -8 3 14 9 50 12 36 3 66 6 68 7 1 1 2 -2 2 -7z m377 -18 c3 -7
-4 -9 -16 -6 -12 3 -18 9 -15 15 7 11 26 6 31 -9z m85 5 c-9 -9 -15 -9 -24 0
-9 9 -7 12 12 12 19 0 21 -3 12 -12z m-2090 -85 c13 -17 32 -37 43 -43 14 -9
12 -4 -7 16 -15 16 -31 41 -37 56 l-10 26 61 -24 c33 -13 77 -26 97 -30 20 -4
61 -13 91 -20 159 -41 483 -49 690 -18 33 5 34 5 15 -10 -19 -16 -19 -16 5 -7
14 4 31 6 38 4 6 -3 12 2 12 11 0 21 13 26 27 10 10 -10 7 -16 -17 -30 -16
-10 -26 -22 -23 -27 3 -5 -1 -13 -8 -18 -11 -7 -10 -9 4 -9 9 0 17 7 17 15 0
8 7 15 15 15 8 0 26 12 40 27 14 15 25 22 25 15 0 -7 4 -11 10 -7 5 3 7 12 3
20 -3 9 1 15 10 15 11 0 14 -7 11 -25 -3 -20 -1 -23 12 -18 12 5 15 3 9 -6 -6
-10 -3 -11 12 -3 24 13 40 32 45 52 3 16 13 27 42 50 18 14 19 14 7 -7 -8 -16
-8 -23 -1 -23 6 0 8 -4 5 -10 -3 -5 -1 -10 5 -10 7 0 9 8 5 21 -5 14 -3 19 3
15 21 -13 34 -74 23 -109 -54 -162 -736 -235 -1135 -121 -108 31 -177 64 -205
100 -25 32 -26 41 -4 117 15 54 18 58 29 41 7 -11 23 -33 36 -51z m1615 61
c-3 -3 -12 -4 -19 -1 -8 3 -5 6 6 6 11 1 17 -2 13 -5z m-22 -43 c16 -27 34
-85 28 -91 -3 -3 -10 4 -17 14 -6 11 -30 41 -54 67 l-44 48 39 -11 c21 -5 42
-18 48 -27z m-432 -16 c-10 -13 -22 -25 -27 -25 -5 0 1 11 14 25 30 32 36 32
13 0z m351 16 c3 -5 -6 -8 -19 -8 -33 0 -41 12 -10 15 13 1 26 -2 29 -7z m321
-12 c11 -17 -1 -21 -15 -4 -8 9 -8 15 -2 15 6 0 14 -5 17 -11z m-286 -14 c11
-11 -3 -12 -74 -6 -29 3 -29 3 -5 10 35 10 67 8 79 -4z m361 -15 c0 -5 -7 -10
-15 -10 -8 0 -15 5 -15 10 0 6 7 10 15 10 8 0 15 -4 15 -10z m-40 -22 c0 -6
-6 -5 -15 2 -8 7 -15 14 -15 16 0 2 7 1 15 -2 8 -4 15 -11 15 -16z m722 -9
c37 -19 53 -49 46 -85 -6 -35 -26 -23 -56 34 -17 32 -42 64 -54 70 -23 12 -23
12 2 6 14 -4 42 -15 62 -25z m-1047 11 c16 -7 14 -9 -15 -10 l-35 -1 25 -14
25 -14 -26 -1 c-18 0 -32 9 -43 25 -16 25 -16 25 16 24 18 0 42 -4 53 -9z
m805 0 c0 -5 -2 -10 -4 -10 -3 0 -8 5 -11 10 -3 6 -1 10 4 10 6 0 11 -4 11
-10z m440 -10 c0 -24 -36 -35 -85 -26 -43 8 -56 26 -18 26 15 0 33 4 40 8 7 4
23 9 37 10 20 1 26 -3 26 -18z m-1000 0 c0 -13 -11 -13 -30 0 -12 8 -11 10 8
10 12 0 22 -4 22 -10z m146 -16 c18 -14 18 -15 -6 -8 -31 8 -50 24 -29 24 8 0
24 -7 35 -16z m-2476 -12 c12 2 25 -2 27 -8 2 -8 -14 -15 -44 -19 -26 -3 -61
-12 -78 -19 -28 -12 -27 -13 25 -9 l55 3 -41 -21 c-40 -21 -81 -65 -49 -53 35
14 11 -8 -35 -31 -27 -14 -50 -28 -50 -30 0 -3 14 1 30 10 17 9 30 14 30 12 0
-1 -29 -32 -66 -67 -62 -62 -72 -61 -33 4 10 16 16 33 13 37 -7 12 23 66 41
72 8 4 15 15 15 25 0 30 118 121 131 101 3 -5 16 -8 29 -7z m2163 -29 c13 -21
32 -53 42 -72 l17 -34 -33 21 c-19 12 -51 29 -71 38 -39 17 -50 34 -22 34 8 0
24 -5 34 -10 11 -6 21 -6 24 -1 3 5 -8 14 -24 21 -37 15 -53 35 -20 25 15 -5
20 -4 16 4 -4 6 -2 11 3 11 6 0 21 -17 34 -37z m617 -9 c32 -49 35 -62 7 -41
-15 11 -53 87 -43 87 3 0 19 -21 36 -46z m-2695 -26 c0 -29 -3 -57 -7 -63 -36
-49 -62 -75 -81 -81 -12 -4 -35 -17 -50 -30 -16 -13 -39 -24 -51 -24 -13 0
-26 -3 -30 -7 -8 -8 -99 -33 -104 -28 -4 4 171 165 179 165 4 0 3 -16 -3 -36
-16 -59 -1 -50 18 10 10 31 28 66 41 78 l23 21 0 -25 c0 -14 -7 -45 -15 -69
-12 -34 -13 -41 -2 -29 7 8 21 42 31 75 14 46 39 95 50 95 1 0 1 -24 1 -52z
m2378 45 c-7 -2 -19 -2 -25 0 -7 3 -2 5 12 5 14 0 19 -2 13 -5z m-2340 -48
c-9 -19 -21 -35 -25 -35 -9 0 6 34 25 58 17 22 17 13 0 -23z m2254 -9 c-1 -6
3 -10 9 -9 7 1 11 -3 10 -10 -2 -23 36 -132 52 -150 36 -40 54 -39 22 1 -36
45 -57 139 -29 130 14 -4 27 -27 68 -122 12 -26 24 -46 27 -43 3 3 1 14 -4 24
-5 10 -12 32 -16 48 l-7 30 40 -40 c23 -21 41 -44 41 -51 0 -6 7 -18 17 -25
15 -13 15 -12 4 9 -11 21 -11 22 6 12 10 -7 26 -23 36 -36 15 -21 16 -24 2
-24 -8 0 -15 3 -15 8 0 4 -17 8 -38 10 -70 6 -74 7 -199 70 -51 26 -93 51 -93
56 0 5 7 3 15 -4 25 -21 17 4 -15 46 -35 46 -36 54 -10 77 19 16 20 15 36 -41
16 -55 51 -118 61 -108 2 2 -3 16 -13 31 -10 15 -23 56 -30 91 -11 63 -11 65
7 48 10 -9 17 -21 16 -28z m498 -29 c6 -4 -1 -4 -14 1 -14 5 -32 20 -40 33
l-15 24 29 -25 c17 -14 35 -28 40 -33z m-936 -12 c0 -5 -6 1 -14 15 -8 14 -14
30 -14 35 0 6 6 -1 14 -15 8 -14 14 -29 14 -35z m246 -8 c31 -20 63 -82 50
-96 -3 -2 -5 0 -5 6 0 6 -7 13 -15 17 -13 4 -13 2 -5 -14 5 -10 15 -22 20 -25
6 -3 10 -12 10 -18 0 -15 -79 74 -80 89 0 6 -7 17 -16 24 -8 8 -20 22 -25 33
-9 16 -8 18 11 12 12 -4 37 -16 55 -28z m453 -83 c17 -14 32 -34 32 -45 0 -11
5 -30 11 -41 7 -13 -8 -5 -40 22 -28 24 -51 44 -51 45 0 1 12 1 28 -2 24 -3
25 -2 7 7 -11 5 -32 14 -47 20 -16 5 -28 15 -28 21 0 17 50 2 88 -27z"/>
<path d="M7276 8814 c-9 -22 -8 -26 5 -18 6 3 15 0 20 -7 7 -11 9 -11 9 2 0 9
-6 22 -14 28 -11 9 -15 8 -20 -5z"/>
<path d="M7267 8719 c7 -7 15 -10 18 -7 3 3 -2 9 -12 12 -14 6 -15 5 -6 -5z"/>
<path d="M7232 8698 c-15 -15 -16 -58 -2 -58 10 0 14 14 10 39 -1 12 1 13 13
2 10 -7 17 -8 21 -2 10 16 -29 32 -42 19z"/>
<path d="M7126 8635 c-3 -8 -1 -15 5 -15 6 0 8 -4 5 -8 -2 -4 0 -14 5 -22 8
-12 12 -12 16 -2 2 6 9 10 14 6 17 -10 9 23 -9 39 -23 21 -28 21 -36 2z"/>
<path d="M7126 8553 c-6 -14 -5 -15 5 -6 7 7 10 15 7 18 -3 3 -9 -2 -12 -12z"/>
<path d="M7077 8473 c3 -7 9 -13 13 -13 4 0 10 6 13 13 3 7 -3 13 -13 13 -10
0 -16 -6 -13 -13z"/>
<path d="M6843 7989 c-12 -27 -18 -49 -14 -49 10 0 52 88 43 94 -4 2 -17 -18
-29 -45z"/>
<path d="M6881 7994 c0 -11 3 -14 6 -6 3 7 2 16 -1 19 -3 4 -6 -2 -5 -13z"/>
<path d="M6769 7908 c-7 -13 -19 -33 -27 -45 -8 -13 -10 -23 -5 -23 5 0 19 20
31 45 22 46 23 64 1 23z"/>
<path d="M6796 7914 c-3 -9 -6 -22 -6 -30 0 -8 -8 -26 -17 -40 -9 -14 -18 -38
-19 -52 -2 -18 9 -3 29 40 18 37 38 68 45 70 8 2 6 7 -7 15 -16 10 -20 9 -25
-3z"/>
<path d="M6800 7800 c-6 -11 -8 -20 -6 -20 3 0 10 9 16 20 6 11 8 20 6 20 -3
0 -10 -9 -16 -20z"/>
<path d="M6673 7757 c-11 -18 -23 -46 -26 -62 -7 -29 -6 -29 11 5 43 87 52
121 15 57z"/>
<path d="M8299 7883 l-24 -28 28 24 c15 14 27 26 27 28 0 8 -8 1 -31 -24z"/>
<path d="M5110 7735 c15 -18 128 -75 149 -75 8 0 -17 15 -56 34 -39 19 -74 39
-77 45 -4 6 -12 11 -18 11 -7 0 -6 -5 2 -15z"/>
<path d="M5309 7645 c18 -8 38 -15 45 -15 6 1 -4 7 -23 15 -18 8 -38 15 -45
15 -6 -1 4 -7 23 -15z"/>
<path d="M7189 7623 c-13 -16 -12 -17 4 -4 9 7 17 15 17 17 0 8 -8 3 -21 -13z"/>
<path d="M6867 7592 c-59 -8 -106 -17 -103 -19 6 -6 185 16 222 27 41 12 8 10
-119 -8z"/>
<path d="M6668 7563 c6 -2 18 -2 25 0 6 3 1 5 -13 5 -14 0 -19 -2 -12 -5z"/>
<path d="M6530 7549 c0 -11 21 -11 39 0 9 6 5 9 -13 9 -14 0 -26 -4 -26 -9z"/>
<path d="M6433 7543 c9 -2 23 -2 30 0 6 3 -1 5 -18 5 -16 0 -22 -2 -12 -5z"/>
<path d="M6966 6905 c-3 -8 -1 -15 4 -15 6 0 10 7 10 15 0 8 -2 15 -4 15 -2 0
-6 -7 -10 -15z"/>
<path d="M6909 6883 l-24 -28 28 24 c15 14 27 26 27 28 0 8 -8 1 -31 -24z"/>
<path d="M6942 6840 c-18 -17 -28 -30 -23 -30 5 0 14 7 21 15 7 8 19 14 28 13
8 -2 16 5 17 15 4 24 -5 21 -43 -13z"/>
<path d="M6804 6838 l-19 -23 23 19 c12 11 22 21 22 23 0 8 -8 2 -26 -19z"/>
<path d="M6910 6845 c-7 -8 -8 -15 -2 -15 5 0 15 7 22 15 7 8 8 15 2 15 -5 0
-15 -7 -22 -15z"/>
<path d="M5500 6823 c0 -13 29 -38 35 -31 3 3 -4 13 -15 23 -11 10 -20 13 -20
8z"/>
<path d="M6810 6796 c0 -29 13 -46 34 -45 11 0 15 3 8 6 -6 2 -10 9 -6 14 3 5
-1 16 -10 24 -18 19 -26 19 -26 1z"/>
<path d="M6764 6763 c-15 -20 -23 -33 -16 -29 13 8 56 66 49 66 -3 0 -17 -17
-33 -37z"/>
<path d="M5730 6730 c0 -5 5 -10 11 -10 5 0 7 5 4 10 -3 6 -8 10 -11 10 -2 0
-4 -4 -4 -10z"/>
<path d="M6865 6730 c-3 -5 1 -10 10 -10 9 0 13 5 10 10 -3 6 -8 10 -10 10 -2
0 -7 -4 -10 -10z"/>
<path d="M6822 6716 c7 -8 15 -12 17 -11 5 6 -10 25 -20 25 -5 0 -4 -6 3 -14z"/>
<path d="M6674 6704 c-18 -14 -18 -15 4 -4 12 6 22 13 22 15 0 8 -5 6 -26 -11z"/>
<path d="M6714 6705 c-10 -8 -14 -15 -8 -15 6 0 17 7 24 15 16 19 9 19 -16 0z"/>
<path d="M5655 6700 c3 -5 8 -10 11 -10 2 0 4 5 4 10 0 6 -5 10 -11 10 -5 0
-7 -4 -4 -10z"/>
<path d="M5710 6700 c0 -5 5 -10 11 -10 5 0 7 5 4 10 -3 6 -8 10 -11 10 -2 0
-4 -4 -4 -10z"/>
<path d="M5748 6683 c7 -3 16 -2 19 1 4 3 -2 6 -13 5 -11 0 -14 -3 -6 -6z"/>
<path d="M6639 6653 c-13 -15 -12 -15 9 -4 23 12 28 21 13 21 -5 0 -15 -7 -22
-17z"/>
<path d="M5780 7910 c0 -5 7 -7 15 -4 8 4 15 8 15 10 0 2 -7 4 -15 4 -8 0 -15
-4 -15 -10z"/>
<path d="M5570 7863 c-13 -15 -12 -16 4 -10 10 4 20 7 22 7 2 0 4 5 4 10 0 15
-13 12 -30 -7z"/>
<path d="M5610 7820 c0 -5 9 -14 20 -20 11 -6 20 -9 20 -8 0 2 -9 11 -20 21
-11 9 -20 13 -20 7z"/>
<path d="M5657 7777 c-28 -11 -31 -28 -6 -35 11 -3 12 -2 1 6 -11 7 -6 12 17
20 17 6 31 13 31 16 0 8 -9 6 -43 -7z"/>
<path d="M5680 7740 c0 -5 7 -10 15 -10 8 0 15 5 15 10 0 6 -7 10 -15 10 -8 0
-15 -4 -15 -10z"/>
<path d="M6050 7720 c19 -13 30 -13 30 0 0 6 -10 10 -22 10 -19 0 -20 -2 -8
-10z"/>
<path d="M5875 7680 c26 -11 35 -12 35 -2 0 4 -12 8 -27 9 -24 1 -25 1 -8 -7z"/>
<path d="M6015 7680 c3 -5 8 -10 11 -10 2 0 4 5 4 10 0 6 -5 10 -11 10 -5 0
-7 -4 -4 -10z"/>
<path d="M3598 7443 c7 -3 16 -2 19 1 4 3 -2 6 -13 5 -11 0 -14 -3 -6 -6z"/>
<path d="M5697 6571 c-3 -14 1 -18 20 -18 23 0 23 0 7 18 -9 11 -18 19 -19 19
-2 0 -5 -8 -8 -19z"/>
<path d="M6816 6545 c-3 -9 0 -15 9 -15 8 0 15 7 15 15 0 8 -4 15 -9 15 -5 0
-11 -7 -15 -15z"/>
<path d="M6755 6490 c-3 -5 -2 -10 4 -10 5 0 13 5 16 10 3 6 2 10 -4 10 -5 0
-13 -4 -16 -10z"/>
<path d="M6840 6491 c0 -17 18 -21 24 -6 3 9 0 15 -9 15 -8 0 -15 -4 -15 -9z"/>
<path d="M5599 6471 c13 -12 28 -21 34 -21 12 0 11 0 -28 24 l-30 17 24 -20z"/>
<path d="M6715 6470 c-3 -5 -1 -10 4 -10 6 0 11 5 11 10 0 6 -2 10 -4 10 -3 0
-8 -4 -11 -10z"/>
<path d="M6780 6470 c-13 -8 -13 -10 2 -10 9 0 20 5 23 10 8 13 -5 13 -25 0z"/>
<path d="M6805 6445 c-25 -12 -26 -14 -5 -9 14 4 29 10 35 15 12 12 5 11 -30
-6z"/>
<path d="M6568 6443 c7 -3 16 -2 19 1 4 3 -2 6 -13 5 -11 0 -14 -3 -6 -6z"/>
<path d="M7255 6340 c3 -4 14 -10 25 -13 11 -3 18 -2 15 3 -3 4 -14 10 -25 13
-11 3 -18 2 -15 -3z"/>
<path d="M6000 10329 c0 -5 4 -8 9 -5 5 3 12 -1 15 -10 4 -9 9 -14 13 -11 7 8
-15 37 -28 37 -5 0 -9 -5 -9 -11z"/>
<path d="M6274 10135 c-4 -8 -3 -22 0 -31 5 -13 9 -14 21 -4 8 7 15 21 15 31
0 23 -28 25 -36 4z m17 -22 c-8 -15 -10 -15 -11 -2 0 17 10 32 18 25 2 -3 -1
-13 -7 -23z"/>
<path d="M6235 10110 c-4 -7 -3 -15 3 -19 7 -4 8 -12 2 -21 -7 -11 -10 -12
-10 -2 0 7 -4 10 -10 7 -5 -3 -10 -17 -10 -30 0 -13 -4 -27 -10 -30 -19 -12
-11 -26 9 -15 11 5 35 10 53 10 44 0 67 15 50 32 -8 8 -12 9 -12 1 0 -7 -13
-11 -29 -11 -28 1 -29 2 -14 24 13 20 13 26 0 44 -10 15 -17 18 -22 10z"/>
<path d="M7680 9906 c0 -8 4 -17 9 -21 6 -3 9 4 8 15 -1 23 -17 28 -17 6z"/>
<path d="M7836 9877 c3 -10 9 -15 12 -12 3 3 0 11 -7 18 -10 9 -11 8 -5 -6z"/>
<path d="M7630 9797 c0 -13 9 -32 20 -42 25 -23 26 -39 1 -24 -21 14 -56 5
-45 -12 4 -8 9 -8 13 -1 10 16 35 -3 28 -22 -3 -8 -1 -18 5 -22 7 -4 8 -3 4 4
-9 16 7 15 22 0 9 -9 12 -4 12 24 0 27 -6 40 -26 53 -19 12 -25 23 -21 41 2
13 0 24 -4 24 -5 0 -9 -11 -9 -23z"/>
<path d="M7684 9796 c-3 -9 1 -23 10 -31 15 -15 16 -14 16 9 0 29 -18 44 -26
22z"/>
<path d="M7765 9759 c-11 -17 -2 -18 19 -3 17 12 17 14 4 14 -9 0 -20 -5 -23
-11z"/>
<path d="M7823 9745 c0 -13 3 -22 8 -19 5 3 9 14 9 25 0 10 -4 19 -9 19 -5 0
-8 -11 -8 -25z"/>
<path d="M5422 9686 c7 -8 15 -12 17 -11 5 6 -10 25 -20 25 -5 0 -4 -6 3 -14z"/>
<path d="M5280 9598 c0 -12 7 -18 23 -17 15 0 17 2 7 6 -8 3 -18 11 -22 17 -5
7 -8 4 -8 -6z"/>
<path d="M7537 9596 c-4 -9 -2 -18 3 -21 6 -4 10 1 10 11 0 14 2 15 17 3 14
-12 16 -12 11 1 -6 21 -34 24 -41 6z"/>
<path d="M5900 9536 c0 -8 4 -17 9 -20 5 -4 7 3 4 14 -6 23 -13 26 -13 6z"/>
<path d="M7530 9536 c0 -8 4 -17 8 -20 4 -2 8 4 8 15 0 10 -4 19 -8 19 -4 0
-8 -6 -8 -14z"/>
<path d="M7813 9533 c4 -3 2 -12 -4 -20 -7 -8 -8 -13 -1 -13 5 0 15 6 21 13
11 14 5 27 -12 27 -6 0 -7 -3 -4 -7z"/>
<path d="M4813 9453 c-3 -10 -9 -22 -11 -28 -3 -5 1 -4 10 3 18 14 22 10 32
-32 4 -16 16 -41 27 -54 10 -14 19 -37 19 -53 0 -15 5 -31 11 -34 17 -11 -1
66 -22 93 -9 12 -23 45 -30 72 -13 52 -25 63 -36 33z"/>
<path d="M5435 9450 c-4 -6 5 -10 20 -10 15 0 24 4 20 10 -3 6 -12 10 -20 10
-8 0 -17 -4 -20 -10z"/>
<path d="M4781 9392 c-6 -12 -11 -27 -11 -34 1 -7 8 0 16 15 9 16 13 31 11 34
-3 2 -10 -4 -16 -15z"/>
<path d="M4812 9257 c2 -83 0 -106 -10 -102 -10 4 -10 0 -1 -18 7 -12 13 -54
14 -93 l1 -72 -25 16 -26 17 23 -39 c13 -21 21 -41 18 -43 -8 -8 -58 98 -73
152 l-13 50 4 -46 c4 -54 40 -136 87 -199 20 -27 41 -71 50 -110 10 -36 16
-66 15 -67 -7 -7 -117 141 -122 164 -9 35 -41 101 -65 132 -25 32 -90 80 -108
81 -8 0 6 -13 31 -29 43 -27 71 -58 98 -110 8 -15 8 -21 1 -17 -6 4 -11 1 -12
-6 0 -7 -8 3 -16 22 -13 30 -17 32 -22 16 -7 -18 -8 -17 -27 5 -25 31 -120
108 -108 87 5 -8 24 -28 42 -43 17 -15 30 -30 27 -35 -3 -4 12 -18 33 -30 33
-20 35 -23 17 -30 -18 -7 -18 -8 7 -15 14 -4 34 -15 44 -26 16 -18 16 -19 -1
-19 -30 0 -99 37 -132 72 -27 28 -93 143 -93 161 0 4 8 4 18 0 15 -6 15 -4 -2
16 l-19 21 37 -15 c21 -9 43 -14 49 -12 7 2 -16 13 -51 25 -52 17 -62 18 -62
6 0 -8 6 -17 13 -19 6 -3 13 -19 14 -36 1 -16 11 -43 23 -58 11 -16 20 -33 20
-38 0 -4 21 -30 45 -56 46 -49 117 -87 163 -87 49 0 155 -132 203 -254 15 -39
44 -106 64 -149 37 -80 39 -103 8 -75 -10 9 -44 30 -76 48 -41 23 -67 47 -93
85 -60 91 -139 133 -244 130 -25 -1 -71 -2 -102 -3 -32 -1 -58 -6 -58 -12 0
-11 75 -82 129 -121 62 -46 155 -72 235 -66 64 6 74 4 127 -25 32 -16 77 -46
99 -65 23 -20 43 -33 46 -30 3 3 -8 31 -24 63 -90 180 -162 384 -162 459 0 15
9 42 19 59 38 62 60 159 55 238 -7 91 -12 118 -24 118 -5 0 -5 -11 1 -29 5
-15 8 -70 7 -122 -3 -77 -8 -104 -30 -149 -24 -50 -26 -52 -27 -25 0 17 6 39
14 49 24 32 17 42 -10 16 -31 -29 -33 -13 -5 49 26 57 25 64 -2 21 l-23 -35
-3 32 c-2 17 4 47 14 65 10 20 11 28 3 21 -7 -7 -17 -13 -22 -13 -10 0 -4 82
8 115 7 19 7 19 -7 1 -13 -16 -14 -12 -10 42 2 34 0 68 -7 78 -9 15 -11 -6 -9
-89z m-48 -718 c22 -21 38 -40 34 -44 -4 -4 -17 3 -29 16 l-21 24 5 -22 c8
-35 -10 -27 -39 17 -27 41 -45 49 -24 11 15 -29 6 -26 -25 6 -14 15 -25 23
-25 17 0 -5 5 -15 12 -22 18 -18 1 -15 -98 17 -97 31 -96 39 6 43 84 4 152
-17 204 -63z m-179 -4 c33 -12 82 -31 108 -41 48 -17 48 -18 25 -30 -21 -12
-20 -13 17 -7 30 4 37 3 29 -6 -40 -43 -159 -9 -244 70 -52 47 -53 50 -25 44
17 -4 57 -17 90 -30z"/>
<path d="M4568 8503 c6 -2 18 -2 25 0 6 3 1 5 -13 5 -14 0 -19 -2 -12 -5z"/>
<path d="M4746 9313 c-2 -10 -8 -29 -11 -43 -10 -36 10 -13 23 28 6 17 7 32 2
32 -5 0 -11 -8 -14 -17z"/>
<path d="M7759 9221 c8 -5 10 -14 6 -21 -5 -9 -4 -11 3 -6 18 11 14 36 -5 36
-14 0 -15 -2 -4 -9z"/>
<path d="M4721 9173 c1 -53 6 -49 11 10 2 20 0 37 -4 37 -4 0 -8 -21 -7 -47z"/>
<path d="M7495 9080 c-3 -5 0 -7 8 -4 10 3 18 -4 25 -23 6 -15 11 -22 11 -15
1 18 -18 52 -29 52 -5 0 -12 -4 -15 -10z"/>
<path d="M4779 9053 c12 -24 31 -39 31 -25 0 5 -10 17 -21 28 -22 19 -22 19
-10 -3z"/>
<path d="M7425 9060 c-4 -6 1 -22 9 -35 19 -30 31 -33 16 -6 -16 31 -13 46 7
30 14 -12 16 -12 11 1 -6 19 -34 25 -43 10z"/>
<path d="M4134 8928 c-4 -7 -4 -10 1 -6 4 4 15 2 23 -5 12 -10 14 -9 11 2 -7
20 -26 25 -35 9z"/>
<path d="M6047 8923 c-12 -12 -7 -22 8 -17 18 7 21 -31 4 -42 -6 -3 -8 -16 -5
-28 5 -19 4 -20 -8 -3 -20 26 -30 20 -12 -8 10 -15 16 -43 15 -72 l-1 -48 -11
43 c-5 24 -16 42 -23 42 -18 0 -18 -22 1 -67 8 -19 16 -69 16 -112 l1 -76 8
55 c5 30 6 58 4 62 -3 4 4 12 15 17 27 15 74 102 62 114 -12 12 -41 -15 -46
-44 -8 -41 -13 -30 -10 23 3 65 4 68 15 43 6 -15 9 -9 9 27 1 69 -20 114 -42
91z"/>
<path d="M4170 8873 c0 -14 -2 -15 -9 -5 -12 20 -22 -27 -10 -49 5 -10 9 -26
9 -36 -1 -14 -4 -11 -16 9 -13 24 -42 48 -58 48 -3 0 -6 -8 -6 -17 0 -10 23
-38 50 -63 41 -36 52 -53 57 -85 l5 -40 -31 35 c-20 22 -28 27 -21 13 9 -19 8
-21 -10 -18 -30 6 -25 0 24 -29 25 -14 48 -37 54 -53 24 -64 53 -166 48 -171
-3 -3 -23 14 -43 37 -43 47 -108 70 -101 35 3 -17 28 -36 129 -99 26 -16 42
-42 76 -120 24 -55 43 -104 43 -108 0 -4 -17 10 -38 33 -33 34 -72 53 -72 35
0 -26 40 -70 88 -98 51 -30 62 -42 105 -121 26 -49 46 -90 45 -91 -2 -2 -43
16 -93 40 -62 30 -116 65 -175 117 l-85 74 0 82 c0 80 -11 112 -34 98 -14 -9
-14 -60 -1 -105 13 -46 3 -53 -23 -16 -16 22 -23 49 -27 104 -3 47 -10 76 -17
79 -7 2 -13 -3 -13 -12 0 -9 5 -16 10 -16 6 0 10 -8 10 -17 0 -16 -2 -16 -11
-3 -8 11 -9 3 -4 -30 l6 -44 -25 23 c-22 21 -26 34 -28 100 -2 45 -7 75 -13
73 -5 -1 -9 -25 -9 -52 2 -62 -12 -65 -28 -5 -7 24 -15 40 -19 34 -4 -8 -13
-7 -30 1 -23 13 -24 12 -6 -7 24 -28 21 -33 -13 -26 -23 4 -30 2 -30 -9 0 -11
15 -17 49 -22 32 -4 51 -12 55 -23 9 -22 1 -27 -24 -13 -12 6 -29 9 -38 5 -15
-6 -15 -8 2 -21 11 -8 36 -14 56 -14 27 0 43 -7 65 -30 33 -34 31 -36 -20 -15
-29 13 -40 14 -52 4 -12 -11 -11 -14 9 -25 13 -8 41 -13 64 -14 32 0 46 -6 70
-31 l29 -32 -33 6 c-21 4 -31 3 -27 -3 3 -6 20 -10 37 -10 20 0 43 -11 67 -32
99 -86 133 -119 129 -123 -3 -3 -33 2 -67 11 -35 8 -65 13 -68 11 -2 -3 9 -8
26 -12 45 -10 38 -22 -15 -28 -25 -2 -51 -10 -57 -17 -9 -9 -5 -10 18 -5 23 5
26 4 15 -4 -8 -6 -23 -11 -32 -11 -10 0 -18 -4 -18 -10 0 -13 31 -13 65 0 24
9 26 12 14 28 -13 15 -12 16 3 4 14 -12 21 -11 40 2 34 24 74 19 167 -19 95
-39 136 -64 232 -142 36 -29 70 -53 74 -53 4 0 -32 39 -82 88 -74 72 -97 102
-133 175 l-44 88 22 62 c22 63 29 141 13 165 -12 20 -54 -41 -48 -71 4 -20 4
-20 6 4 1 25 17 49 33 49 9 0 10 -65 2 -97 -4 -13 -10 -20 -15 -17 -5 3 -6 -2
-3 -10 10 -26 -4 -18 -20 12 -17 31 -19 23 -7 -30 19 -80 -21 -11 -75 130
l-25 64 26 55 c16 35 25 73 25 104 0 52 -9 60 -31 32 -13 -16 -12 -17 4 -4 15
12 17 10 17 -22 0 -69 -29 -97 -31 -29 -1 53 -17 12 -19 -48 -1 -56 -11 -41
-38 57 -20 69 -20 71 -1 112 10 23 17 47 15 54 -1 6 -1 9 1 4 3 -4 9 -5 14 -1
11 6 12 54 2 54 -26 -1 -53 -45 -53 -87 0 -38 -17 -12 -25 39 -6 32 -2 46 24
85 35 52 41 86 14 81 -9 -2 -18 -10 -20 -18 -4 -13 -3 -13 6 0 16 24 26 2 11
-26 -13 -23 -15 -24 -21 -7 -6 14 -8 13 -8 -9 -1 -15 -5 -30 -11 -33 -11 -7
-14 17 -10 83 1 23 -1 42 -4 42 -3 0 -6 -8 -6 -17z m-51 -82 c-6 -2 -15 3 -20
10 -15 24 -10 29 11 11 12 -10 16 -18 9 -21z m151 -71 c0 -5 -5 -10 -11 -10
-5 0 -7 5 -4 10 3 6 8 10 11 10 2 0 4 -4 4 -10z m-67 -273 c4 -10 -6 -8 -33 7
-21 11 -36 24 -34 28 7 11 60 -18 67 -35z m-298 -125 c-3 -3 -11 0 -18 7 -9
10 -8 11 6 5 10 -3 15 -9 12 -12z m210 -12 c3 -5 1 -10 -4 -10 -6 0 -11 5 -11
10 0 6 2 10 4 10 3 0 8 -4 11 -10z m5 -30 c0 -5 -4 -10 -10 -10 -5 0 -10 5
-10 10 0 6 5 10 10 10 6 0 10 -4 10 -10z m-165 -20 c3 -5 -1 -10 -10 -10 -9 0
-13 5 -10 10 3 6 8 10 10 10 2 0 7 -4 10 -10z m343 -65 c12 -13 17 -27 13 -30
-5 -2 -14 2 -21 10 -7 8 -9 15 -4 15 4 0 -1 7 -12 15 -10 8 -14 15 -8 15 6 0
20 -11 32 -25z"/>
<path d="M7442 8686 c7 -8 15 -12 17 -11 5 6 -10 25 -20 25 -5 0 -4 -6 3 -14z"/>
<path d="M7606 8661 c-3 -5 1 -11 9 -15 8 -3 15 -1 15 4 0 13 -18 22 -24 11z"/>
<path d="M5341 8627 c-11 -18 -24 -45 -30 -60 -11 -27 -11 -27 14 -11 28 18
33 26 10 18 -10 -4 -7 8 11 40 29 52 26 63 -5 13z"/>
<path d="M8107 8530 c12 -5 26 -17 32 -27 8 -15 12 -16 23 -5 11 11 10 16 -6
28 -11 8 -31 14 -45 13 -25 0 -25 -1 -4 -9z"/>
<path d="M3845 8499 c-4 -6 -4 -13 -1 -16 3 -4 6 -1 6 6 0 8 6 11 16 7 8 -3
12 -2 9 4 -8 13 -22 13 -30 -1z"/>
<path d="M5470 8331 c0 -5 6 -14 14 -20 8 -7 18 -26 21 -42 5 -21 12 -29 28
-29 13 0 17 3 11 8 -6 4 -19 21 -27 39 l-17 32 28 -9 c15 -4 41 -13 57 -20 17
-6 26 -7 20 -1 -11 10 -110 51 -125 51 -6 0 -10 -4 -10 -9z"/>
<path d="M8016 8285 c-3 -8 -1 -15 4 -15 13 0 22 18 11 24 -5 3 -11 -1 -15 -9z"/>
<path d="M4412 8240 c0 -14 2 -19 5 -12 2 6 2 18 0 25 -3 6 -5 1 -5 -13z"/>
<path d="M1892 8158 c-44 -123 -109 -328 -115 -368 -4 -19 3 -3 15 35 12 39
48 147 79 240 60 177 73 237 21 93z"/>
<path d="M8137 8153 c-11 -21 -38 -154 -34 -170 4 -14 5 -13 6 5 2 38 32 132
42 132 5 0 9 9 9 20 0 20 -15 27 -23 13z"/>
<path d="M3896 8110 c23 -9 41 -30 27 -30 -5 0 -14 5 -21 12 -7 7 -12 9 -12 5
0 -3 10 -15 22 -27 31 -29 16 -35 -31 -11 -29 15 -39 17 -35 7 6 -16 -24 -56
-42 -56 -7 0 -15 6 -17 13 -4 9 -6 9 -6 -1 -1 -18 28 -27 42 -13 6 6 22 11 36
11 24 0 24 -1 5 -14 -10 -8 -16 -18 -11 -22 4 -4 20 5 36 20 23 22 36 27 56
22 21 -5 24 -9 15 -26 -6 -10 -20 -26 -32 -34 -12 -9 -19 -16 -14 -16 5 0 31
20 57 45 28 26 42 45 33 45 -9 0 -34 18 -56 40 -23 22 -48 40 -57 39 -11 0 -9
-3 5 -9z"/>
<path d="M4010 8100 c0 -5 14 -20 31 -32 30 -23 31 -23 7 -29 -16 -5 -10 -7
23 -8 l46 -1 -37 40 c-34 37 -70 53 -70 30z m41 -17 c13 -17 13 -17 -6 -3 -11
8 -22 16 -24 17 -2 2 0 3 6 3 6 0 17 -8 24 -17z"/>
<path d="M8153 8040 c0 -41 2 -58 4 -37 2 20 2 54 0 75 -2 20 -4 3 -4 -38z"/>
<path d="M3800 8078 c0 -9 7 -19 16 -22 15 -6 15 -4 3 11 -7 10 -15 20 -16 22
-2 2 -3 -3 -3 -11z"/>
<path d="M4985 8070 c3 -5 11 -10 16 -10 6 0 7 5 4 10 -3 6 -11 10 -16 10 -6
0 -7 -4 -4 -10z"/>
<path d="M7799 8043 c-13 -16 -12 -17 4 -4 16 13 21 21 13 21 -2 0 -10 -8 -17
-17z"/>
<path d="M4637 8036 c-4 -9 -2 -18 3 -21 6 -4 10 -1 10 6 0 21 12 1 20 -33 5
-25 9 -29 14 -16 8 18 -12 69 -30 75 -6 2 -14 -3 -17 -11z"/>
<path d="M7730 8015 c-8 -9 -8 -15 -2 -15 12 0 26 19 19 26 -2 2 -10 -2 -17
-11z"/>
<path d="M4960 8009 c0 -5 5 -7 10 -4 6 3 10 8 10 11 0 2 -4 4 -10 4 -5 0 -10
-5 -10 -11z"/>
<path d="M7770 8005 c-7 -9 -8 -15 -2 -15 5 0 12 7 16 15 3 8 4 15 2 15 -2 0
-9 -7 -16 -15z"/>
<path d="M3920 7995 c-7 -8 -8 -15 -2 -15 5 0 15 7 22 15 7 8 8 15 2 15 -5 0
-15 -7 -22 -15z"/>
<path d="M8091 7934 c0 -11 3 -14 6 -6 3 7 2 16 -1 19 -3 4 -6 -2 -5 -13z"/>
<path d="M10755 7800 c42 -185 91 -378 93 -371 4 13 -66 313 -84 359 -8 20
-12 26 -9 12z"/>
<path d="M4876 7795 c-3 -9 -6 -26 -6 -38 0 -18 2 -19 10 -7 8 13 10 12 10 -2
0 -10 4 -18 9 -18 21 0 22 22 3 51 -16 25 -20 28 -26 14z"/>
<path d="M1727 7603 c-60 -249 -119 -586 -116 -661 0 -15 11 45 24 132 31 206
58 347 101 525 19 79 32 146 30 148 -2 2 -20 -62 -39 -144z"/>
<path d="M7835 7690 c-4 -23 -5 -43 -2 -46 2 -3 7 14 11 37 4 23 5 44 2 46 -2
2 -7 -14 -11 -37z"/>
<path d="M7597 7701 c-4 -17 -3 -21 5 -13 5 5 8 16 6 23 -3 8 -7 3 -11 -10z"/>
<path d="M4650 7689 c0 -5 4 -8 9 -4 5 3 12 1 16 -5 3 -5 -2 -10 -12 -11 -11
0 -13 -3 -5 -6 7 -3 27 1 44 8 27 11 29 14 12 20 -29 11 -64 10 -64 -2z"/>
<path d="M4890 7690 c0 -5 5 -10 10 -10 6 0 10 5 10 10 0 6 -4 10 -10 10 -5 0
-10 -4 -10 -10z"/>
<path d="M4617 7669 c7 -7 15 -10 18 -7 3 3 -2 9 -12 12 -14 6 -15 5 -6 -5z"/>
<path d="M4252 7650 c0 -14 2 -19 5 -12 2 6 2 18 0 25 -3 6 -5 1 -5 -13z"/>
<path d="M3516 7642 c-3 -5 10 -9 29 -10 20 -1 44 -6 55 -12 12 -6 28 -10 38
-9 36 3 50 -2 92 -38 31 -27 40 -31 31 -15 -10 19 -9 22 6 22 10 0 30 -7 43
-16 21 -13 20 -11 -4 11 -20 19 -35 25 -52 21 -14 -4 -36 2 -58 15 -20 12 -42
19 -50 16 -7 -3 -31 1 -52 8 -45 16 -71 18 -78 7z"/>
<path d="M4350 7610 c6 -11 14 -20 19 -20 7 0 42 -70 55 -110 3 -10 5 -9 5 5
1 32 -56 145 -74 145 -13 0 -14 -4 -5 -20z"/>
<path d="M4151 7527 c-1 -24 37 -97 50 -97 8 0 8 4 1 13 -6 7 -20 33 -31 57
-11 25 -20 37 -20 27z"/>
<path d="M4747 7463 c-10 -9 -9 -73 1 -73 4 0 8 18 9 40 1 42 0 44 -10 33z"/>
<path d="M10850 7404 c0 -5 13 -88 29 -184 46 -274 63 -470 70 -810 l8 -315 1
235 c2 245 -8 438 -33 650 -23 191 -75 486 -75 424z"/>
<path d="M4740 7337 c0 -20 4 -38 9 -42 6 -3 7 10 4 32 -8 50 -13 55 -13 10z"/>
<path d="M8470 7282 c0 -5 7 -13 16 -16 22 -8 24 -8 24 6 0 6 -3 8 -7 5 -3 -4
-12 -2 -20 4 -8 7 -13 8 -13 1z"/>
<path d="M8686 7281 c-4 -5 3 -7 14 -4 23 6 26 13 6 13 -8 0 -17 -4 -20 -9z"/>
<path d="M8410 7261 c0 -6 4 -13 10 -16 6 -3 7 1 4 9 -7 18 -14 21 -14 7z"/>
<path d="M8332 7218 c2 -6 10 -13 16 -14 7 -1 8 0 2 3 -5 2 -8 9 -4 14 3 5 0
9 -6 9 -7 0 -10 -5 -8 -12z"/>
<path d="M8370 7220 c0 -7 24 -20 36 -20 13 0 1 19 -16 23 -11 3 -20 2 -20 -3z"/>
<path d="M7908 7173 c6 -2 18 -2 25 0 6 3 1 5 -13 5 -14 0 -19 -2 -12 -5z"/>
<path d="M7858 7163 c6 -2 18 -2 25 0 6 3 1 5 -13 5 -14 0 -19 -2 -12 -5z"/>
<path d="M7765 7150 l-20 -9 20 1 c11 0 34 4 50 8 l30 8 -30 0 c-16 0 -39 -3
-50 -8z"/>
<path d="M8390 7139 c0 -5 5 -7 10 -4 6 3 10 8 10 11 0 2 -4 4 -10 4 -5 0 -10
-5 -10 -11z"/>
<path d="M8232 7100 c7 -10 14 -18 15 -16 6 6 -9 36 -18 36 -5 0 -4 -9 3 -20z"/>
<path d="M8172 7068 c-14 -14 -16 -28 -3 -28 5 0 11 9 14 20 6 23 5 24 -11 8z"/>
<path d="M8695 6980 c3 -5 8 -10 11 -10 2 0 4 5 4 10 0 6 -5 10 -11 10 -5 0
-7 -4 -4 -10z"/>
<path d="M8676 6941 c-8 -13 37 -22 49 -10 7 7 4 8 -7 4 -11 -4 -18 -2 -18 4
0 13 -17 15 -24 2z"/>
<path d="M8750 6928 c0 -9 -6 -19 -12 -21 -8 -3 -7 -6 4 -6 22 -1 33 18 19 32
-8 8 -11 7 -11 -5z"/>
<path d="M1595 6810 c-4 -56 -5 -103 -2 -106 2 -3 8 41 12 96 3 56 5 104 2
106 -3 3 -8 -40 -12 -96z"/>
<path d="M3869 6783 c-13 -16 -12 -17 4 -4 9 7 17 15 17 17 0 8 -8 3 -21 -13z"/>
<path d="M3895 6740 c-22 -11 -48 -17 -57 -14 -19 6 -25 -11 -8 -21 11 -7 94
28 104 44 9 13 10 14 -39 -9z"/>
<path d="M8906 6745 c4 -8 8 -15 10 -15 2 0 4 7 4 15 0 8 -4 15 -10 15 -5 0
-7 -7 -4 -15z"/>
<path d="M4443 6723 c9 -2 23 -2 30 0 6 3 -1 5 -18 5 -16 0 -22 -2 -12 -5z"/>
<path d="M1577 6556 c-4 -77 -6 -200 -5 -275 1 -105 3 -79 10 119 9 283 6 372
-5 156z"/>
<path d="M8890 6660 c-9 -6 -10 -10 -3 -10 6 0 15 5 18 10 8 12 4 12 -15 0z"/>
<path d="M4102 6590 c-12 -5 -25 -17 -28 -25 -11 -27 1 -25 30 5 15 17 26 30
24 29 -1 0 -13 -4 -26 -9z"/>
<path d="M7990 6572 c0 -5 7 -15 15 -22 8 -7 15 -8 15 -2 0 5 -7 15 -15 22 -8
7 -15 8 -15 2z"/>
<path d="M4025 6505 c-25 -24 -32 -45 -16 -45 5 0 29 12 52 26 27 15 34 23 19
18 -14 -3 -34 -14 -45 -23 -19 -15 -19 -15 -5 4 8 11 22 25 30 32 11 9 12 12
2 13 -7 0 -24 -11 -37 -25z"/>
<path d="M4123 6503 c9 -2 23 -2 30 0 6 3 -1 5 -18 5 -16 0 -22 -2 -12 -5z"/>
<path d="M8330 6438 c0 -6 3 -8 7 -5 8 8 43 -42 43 -62 0 -7 -6 -11 -14 -8
-10 4 -13 1 -9 -9 8 -20 27 -12 31 14 4 27 -25 82 -43 82 -8 0 -15 -5 -15 -12z"/>
<path d="M8336 6405 c4 -8 8 -15 10 -15 2 0 4 7 4 15 0 8 -4 15 -10 15 -5 0
-7 -7 -4 -15z"/>
<path d="M7055 6380 c3 -5 8 -10 11 -10 2 0 4 5 4 10 0 6 -5 10 -11 10 -5 0
-7 -4 -4 -10z"/>
<path d="M8508 6253 c7 -3 16 -2 19 1 4 3 -2 6 -13 5 -11 0 -14 -3 -6 -6z"/>
<path d="M1581 6059 c1 -46 5 -113 9 -149 5 -40 6 -10 2 80 -5 158 -13 204
-11 69z"/>
<path d="M10943 6020 c0 -41 2 -58 4 -37 2 20 2 54 0 75 -2 20 -4 3 -4 -38z"/>
<path d="M10926 5844 c-4 -53 -5 -98 -3 -101 3 -2 8 39 12 92 4 53 5 98 3 101
-3 2 -8 -39 -12 -92z"/>
<path d="M1603 5795 c0 -27 2 -38 4 -22 2 15 2 37 0 50 -2 12 -4 0 -4 -28z"/>
<path d="M5597 5833 c-4 -3 -7 -13 -7 -20 0 -12 4 -11 22 1 12 9 40 16 61 16
l38 0 -3 -165 -3 -165 25 0 25 0 -3 165 -3 165 41 0 c27 0 47 -7 60 -20 l20
-20 0 25 0 25 -133 0 c-74 0 -137 -3 -140 -7z"/>
<path d="M6124 5824 c13 -13 16 -42 16 -158 0 -97 -4 -146 -12 -154 -9 -9 -4
-12 26 -12 32 0 36 2 27 14 -7 9 -11 41 -9 83 l3 68 100 0 100 0 3 -68 c2 -42
-2 -74 -9 -83 -9 -12 -5 -14 26 -14 31 0 36 2 25 14 -18 23 -10 304 10 316 11
7 2 10 -29 10 -35 0 -42 -3 -33 -12 7 -7 12 -40 12 -80 l0 -68 -105 0 -105 0
0 61 c0 33 5 69 10 80 10 17 7 19 -30 19 -38 0 -40 -1 -26 -16z"/>
<path d="M6708 5828 c8 -8 12 -58 12 -158 0 -100 -4 -150 -12 -158 -9 -9 1
-12 48 -11 44 1 51 3 29 8 l-30 6 0 75 0 75 46 3 c33 2 51 -2 63 -13 15 -15
16 -14 16 16 0 26 -3 30 -12 21 -7 -7 -36 -12 -65 -12 l-54 0 3 73 3 72 58 3
c41 2 66 -2 83 -13 23 -15 24 -14 24 5 0 19 -6 20 -112 20 -87 0 -109 -3 -100
-12z"/>
<path d="M1611 5715 c-2 -75 107 -657 126 -675 7 -6 6 -2 -40 210 -20 91 -47
239 -61 330 -13 91 -25 152 -25 135z"/>
<path d="M10902 5638 c-17 -136 -57 -349 -98 -517 -19 -79 -32 -146 -30 -148
2 -2 20 62 40 144 54 225 112 559 104 599 -2 11 -9 -25 -16 -78z"/>
<path d="M4680 5660 c0 -6 108 -10 305 -10 197 0 305 4 305 10 0 6 -108 10
-305 10 -197 0 -305 -4 -305 -10z"/>
<path d="M7250 5660 c0 -6 110 -10 310 -10 200 0 310 4 310 10 0 6 -110 10
-310 10 -200 0 -310 -4 -310 -10z"/>
<path d="M6935 5530 c-3 -5 -20 -14 -38 -19 l-32 -9 36 -1 c29 -1 38 3 42 19
6 21 2 26 -8 10z"/>
<path d="M3022 5166 c21 -6 48 -22 60 -34 l23 -23 3 -527 c2 -511 2 -528 -18
-559 -15 -25 -29 -34 -60 -39 -22 -4 -38 -9 -35 -12 7 -8 365 -10 365 -2 0 3
-17 11 -37 16 -68 16 -73 39 -73 337 l0 257 381 0 380 0 -3 -267 c-3 -287 -5
-299 -55 -322 -13 -6 -33 -11 -45 -11 -12 0 -18 -3 -14 -7 9 -10 366 -12 366
-2 0 4 -16 10 -35 13 -19 4 -43 18 -55 33 -20 25 -20 37 -20 552 0 402 3 532
13 551 7 15 31 32 57 42 l45 17 -190 0 c-161 -1 -184 -2 -151 -12 21 -7 48
-25 60 -40 20 -27 21 -40 21 -270 l0 -242 -265 -3 c-146 -2 -316 0 -378 3
l-113 7 3 243 c3 240 3 244 27 268 12 14 39 30 60 35 27 7 -14 10 -159 10
-163 0 -189 -2 -158 -12z"/>
<path d="M5061 5168 c21 -5 48 -21 60 -35 l24 -25 3 -511 c2 -282 0 -527 -3
-545 -7 -36 -53 -72 -93 -72 -13 0 -21 -4 -17 -10 7 -11 866 -12 905 -1 21 6
27 18 47 101 30 130 28 146 -10 75 -39 -72 -97 -119 -167 -134 -28 -6 -145
-11 -259 -11 -191 0 -211 2 -232 19 l-24 19 -3 271 -3 271 165 0 c129 0 175
-4 206 -16 45 -18 77 -57 86 -103 15 -74 23 -29 23 134 -1 164 -8 208 -23 134
-3 -17 -15 -43 -26 -59 -34 -48 -68 -55 -255 -55 l-170 0 0 265 0 265 215 0
c118 0 232 -4 253 -8 48 -10 106 -62 136 -121 23 -47 36 -60 27 -28 -2 9 -10
56 -16 105 l-12 87 -437 -1 c-302 -1 -425 -4 -400 -11z"/>
<path d="M6828 5163 c75 -26 72 -5 72 -596 0 -513 0 -525 -20 -550 -12 -15
-36 -29 -55 -33 -81 -15 -23 -23 150 -22 102 1 185 5 185 10 0 4 -9 8 -20 8
-36 0 -79 29 -87 58 -5 15 -8 133 -8 262 l0 235 95 0 95 0 168 -230 c92 -126
180 -243 195 -258 37 -40 110 -75 170 -83 46 -6 181 4 157 12 -5 2 -29 8 -52
14 -63 16 -128 82 -290 294 -80 105 -159 205 -176 223 -33 36 -32 37 40 47
116 16 230 91 275 180 26 51 35 152 18 211 -29 103 -122 181 -257 215 -68 18
-110 20 -387 19 -290 -1 -308 -2 -268 -16z m592 -42 c109 -42 170 -126 178
-247 6 -90 -15 -158 -64 -208 -73 -75 -166 -99 -369 -94 l-120 3 -3 275 c-1
151 0 281 3 289 9 23 304 10 375 -18z"/>
<path d="M8544 5165 c51 -18 65 -34 76 -81 12 -50 12 -954 1 -1014 -10 -50
-48 -90 -87 -90 -13 0 -24 -4 -24 -9 0 -5 152 -8 343 -6 368 2 400 6 506 59
62 32 131 109 154 172 41 115 11 249 -72 327 -63 59 -115 85 -215 106 l-81 18
50 22 c126 56 188 178 151 303 -20 69 -61 117 -133 155 -85 46 -147 53 -442
53 -239 -1 -262 -2 -227 -15z m528 -48 c168 -76 188 -336 33 -432 -47 -29 -53
-30 -192 -34 -78 -2 -143 1 -144 5 -5 35 -6 373 -1 428 l5 69 122 -5 c103 -4
130 -9 177 -31z m102 -526 c71 -25 116 -58 154 -114 43 -63 55 -109 50 -197
-8 -137 -84 -231 -213 -265 -67 -17 -317 -21 -358 -6 -13 5 -27 17 -31 26 -3
9 -6 125 -7 258 0 337 -2 315 19 321 9 3 87 4 172 2 124 -3 167 -8 214 -25z"/>
<path d="M1741 5024 c-2 -17 74 -268 120 -399 69 -197 258 -635 274 -635 7 0
-9 36 -75 175 -102 213 -209 501 -299 805 -10 36 -20 60 -20 54z"/>
<path d="M10761 4944 c0 -11 3 -14 6 -6 3 7 2 16 -1 19 -3 4 -6 -2 -5 -13z"/>
<path d="M10721 4814 c-17 -59 -30 -108 -28 -110 2 -2 18 43 37 101 18 58 31
108 28 110 -2 3 -19 -43 -37 -101z"/>
<path d="M10651 4599 c-17 -51 -29 -94 -27 -96 2 -2 18 37 35 88 17 51 29 94
27 96 -2 2 -18 -37 -35 -88z"/>
<path d="M10606 4475 c-9 -26 -7 -32 5 -12 6 10 9 21 6 23 -2 3 -7 -2 -11 -11z"/>
<path d="M10575 4393 c-87 -231 -238 -529 -423 -833 -14 -23 -14 -24 0 -10 30
28 179 294 273 485 93 190 180 393 172 401 -2 3 -12 -17 -22 -43z"/>
<path d="M2175 3909 c84 -165 260 -443 403 -634 146 -195 267 -332 466 -530
548 -546 1210 -953 1926 -1183 129 -42 359 -103 382 -101 7 0 -54 18 -137 40
-762 199 -1474 598 -2084 1167 -344 321 -703 789 -925 1205 -65 120 -86 145
-31 36z"/>
<path d="M4110 3388 c0 -181 1 -188 20 -188 18 0 20 7 20 70 l0 70 70 0 c110
0 160 36 160 115 0 83 -51 116 -182 119 l-88 2 0 -188z m205 127 c31 -30 33
-83 6 -116 -16 -20 -30 -24 -95 -27 l-76 -4 0 86 0 86 70 0 c62 0 74 -3 95
-25z"/>
<path d="M5575 3567 c-102 -47 -142 -169 -89 -275 21 -43 34 -56 80 -78 66
-32 126 -28 186 11 75 50 104 168 61 252 -42 81 -160 125 -238 90z m147 -43
c65 -33 93 -148 54 -222 -38 -74 -153 -98 -216 -46 -42 36 -60 74 -60 129 0
124 112 194 222 139z"/>
<path d="M6369 3577 c0 -1 -2 -71 -4 -156 -3 -127 -7 -156 -21 -172 -25 -28
-82 -25 -114 6 -23 22 -29 24 -39 11 -17 -20 -6 -35 43 -57 50 -23 69 -23 111
-4 48 24 55 49 55 214 0 123 -3 150 -15 155 -8 3 -15 4 -16 3z"/>
<path d="M6858 3573 l-28 -4 0 -185 0 -184 130 0 c108 0 130 3 130 15 0 12
-22 15 -112 17 l-113 3 2 65 1 65 96 3 c83 2 96 5 96 20 0 15 -12 17 -97 17
l-98 0 0 65 0 65 113 3 c94 2 113 5 110 17 -2 12 -25 16 -103 18 -55 2 -112 2
-127 0z"/>
<path d="M7595 3562 c-170 -80 -139 -336 44 -367 71 -12 187 39 161 70 -9 11
-18 9 -47 -11 -25 -17 -50 -24 -83 -24 -153 0 -205 198 -77 294 39 29 117 27
158 -3 29 -21 59 -23 59 -2 0 19 -71 53 -122 57 -39 4 -64 0 -93 -14z"/>
<path d="M8198 3573 c-10 -3 -18 -11 -18 -19 0 -11 15 -14 65 -14 l65 0 0
-170 c0 -163 1 -170 20 -170 19 0 20 7 20 170 l0 170 60 0 c50 0 60 3 60 18 0
15 -13 17 -128 18 -70 1 -135 -1 -144 -3z"/>
<path d="M4780 3385 c0 -177 1 -185 20 -185 17 0 19 8 22 73 l3 72 52 3 51 3
53 -76 c33 -46 60 -75 71 -75 10 0 18 3 18 6 0 3 -21 35 -47 71 -44 62 -46 67
-29 77 58 34 71 53 71 106 0 46 -4 55 -33 81 -32 28 -35 29 -142 29 l-110 0 0
-185z m229 131 c32 -29 29 -88 -5 -115 -22 -17 -41 -21 -105 -21 l-79 0 0 81
0 81 84 -3 c65 -3 89 -8 105 -23z"/>
<path d="M10085 3458 c-224 -339 -570 -731 -874 -991 -386 -330 -822 -599
-1258 -777 -73 -30 -131 -56 -129 -58 7 -7 187 69 351 148 723 346 1343 870
1820 1535 108 150 150 215 142 215 -2 0 -26 -33 -52 -72z"/>
<path d="M6335 2871 c3 -5 -12 -15 -32 -21 -21 -7 -49 -19 -63 -28 l-25 -15
20 23 c11 12 29 26 40 31 18 7 18 8 1 8 -10 1 -39 -19 -64 -44 -44 -44 -47
-45 -91 -39 -26 4 -56 11 -69 15 -13 5 -31 9 -40 8 -9 0 2 -7 25 -16 49 -17
95 -65 87 -91 -5 -14 -4 -15 5 -2 9 13 11 13 11 0 0 -9 9 -33 19 -53 32 -63
34 -72 14 -56 -10 8 -23 21 -30 29 -8 9 -12 11 -13 3 0 -6 19 -28 42 -47 44
-38 73 -49 45 -18 -10 10 -17 23 -17 29 0 6 -9 32 -21 58 -26 59 -19 68 15 18
14 -20 26 -31 26 -24 0 8 -30 43 -67 79 l-68 64 40 -7 c66 -11 81 -12 67 -8
-26 9 1 23 46 23 26 0 54 5 62 11 12 9 11 10 -7 6 -37 -8 -26 9 19 29 23 10
46 19 50 19 4 0 13 6 20 13 10 10 5 12 -21 12 -18 0 -30 -4 -26 -9z"/>
<path d="M3561 2764 c-51 -64 -50 -84 1 -24 19 22 38 40 41 40 3 0 3 -34 0
-75 -3 -42 -2 -75 3 -75 13 0 94 97 94 112 -1 7 -19 -7 -40 -31 l-40 -44 0 77
c0 42 -3 76 -7 76 -5 -1 -28 -26 -52 -56z"/>
<path d="M8902 2748 c-24 -22 -41 -43 -38 -46 3 -3 14 2 25 12 18 16 21 14 65
-35 26 -28 49 -49 53 -46 3 3 -13 27 -36 53 -46 52 -48 61 -24 79 9 7 12 14 7
18 -5 3 -29 -13 -52 -35z"/>
<path d="M9140 2780 c0 -5 5 -10 11 -10 5 0 7 5 4 10 -3 6 -8 10 -11 10 -2 0
-4 -4 -4 -10z"/>
<path d="M6433 2763 c9 -2 23 -2 30 0 6 3 -1 5 -18 5 -16 0 -22 -2 -12 -5z"/>
<path d="M6253 2731 c24 -22 37 -42 37 -58 0 -41 29 -90 71 -117 37 -25 39
-25 39 -6 0 11 -5 17 -13 15 -7 -3 -17 8 -23 27 -6 18 -14 42 -18 53 -7 17 -5
17 13 -4 12 -13 21 -18 21 -13 0 6 -24 30 -54 54 -30 24 -55 46 -55 50 -1 4 9
9 22 11 16 3 14 5 -10 6 -17 0 -40 4 -50 8 -10 4 -1 -8 20 -26z m77 -101 c11
-22 16 -40 10 -40 -10 0 -40 52 -40 70 0 19 10 10 30 -30z"/>
<path d="M6380 2750 c-8 -5 -26 -10 -40 -11 -21 -1 -22 -2 -5 -6 11 -3 26 -10
33 -16 7 -5 15 -7 19 -4 3 3 18 0 34 -8 37 -20 49 -19 24 2 -20 15 -19 15 5 9
14 -3 42 -9 63 -12 20 -4 40 -11 43 -15 7 -12 44 -12 44 0 0 5 -12 16 -26 26
-15 9 -23 12 -20 6 9 -15 -10 -13 -59 4 -22 8 -56 15 -75 15 -26 0 -31 3 -20
10 8 5 11 10 5 10 -5 0 -17 -5 -25 -10z"/>
<path d="M6500 2750 c8 -5 20 -10 25 -10 6 0 3 5 -5 10 -8 5 -19 10 -25 10 -5
0 -3 -5 5 -10z"/>
<path d="M5037 2733 c145 -2 381 -2 526 0 144 1 26 2 -263 2 -289 0 -407 -1
-263 -2z"/>
<path d="M6988 2733 c144 -2 380 -2 525 0 144 1 26 2 -263 2 -289 0 -407 -1
-262 -2z"/>
<path d="M6520 2680 c0 -6 7 -10 15 -10 8 0 15 2 15 4 0 2 -7 6 -15 10 -8 3
-15 1 -15 -4z"/>
<path d="M6121 2654 c0 -11 3 -14 6 -6 3 7 2 16 -1 19 -3 4 -6 -2 -5 -13z"/>
<path d="M3807 2569 c-38 -23 -66 -43 -63 -46 2 -3 12 0 22 5 27 15 86 -26 81
-56 -2 -12 -1 -24 3 -27 10 -6 42 147 33 156 -5 5 -39 -10 -76 -32z m58 -21
c-10 -43 -11 -44 -35 -23 -26 23 -25 29 3 43 35 17 39 14 32 -20z"/>
<path d="M8704 2587 c-45 -39 -14 -88 42 -67 42 16 64 12 64 -11 0 -14 -12
-25 -37 -36 -29 -13 -34 -18 -19 -21 26 -6 71 31 71 58 0 35 -27 47 -71 31
-27 -10 -39 -10 -47 -2 -16 16 3 45 32 49 11 2 21 8 21 13 0 16 -28 9 -56 -14z"/>
<path d="M4040 2482 c0 -4 9 -13 21 -20 l20 -13 -22 -37 c-13 -20 -29 -47 -37
-59 -8 -13 -10 -23 -4 -23 6 0 25 24 42 53 41 65 37 62 54 47 9 -6 20 -10 27
-8 6 2 -12 18 -41 36 -55 34 -60 36 -60 24z"/>
<path d="M8530 2465 c0 -2 14 -26 30 -52 36 -56 37 -67 8 -87 -35 -25 -47 -20
-80 34 -29 46 -48 63 -48 41 0 -5 15 -29 33 -53 37 -49 76 -61 108 -32 26 24
24 59 -8 110 -24 38 -43 55 -43 39z"/>
<path d="M4246 2297 c-36 -65 -31 -100 15 -116 42 -15 63 -1 94 59 32 62 19
66 -14 5 -26 -48 -60 -66 -86 -45 -20 17 -19 43 6 91 31 62 18 67 -15 6z"/>
<path d="M8243 2289 c-18 -12 -33 -23 -33 -25 0 -10 49 -100 65 -119 l16 -20
-4 20 c-3 11 -8 27 -12 37 -10 24 28 32 64 14 35 -18 41 -19 41 -7 0 5 -13 14
-29 21 -26 10 -28 15 -19 30 9 14 8 24 -5 44 -21 31 -41 32 -84 5z m75 -26 c2
-16 -5 -26 -28 -38 -18 -9 -33 -15 -35 -13 -1 2 -8 13 -14 26 -11 20 -10 26 6
38 27 21 67 14 71 -13z"/>
<path d="M4493 2145 c-17 -36 -27 -68 -22 -71 5 -3 9 -1 9 3 0 5 6 17 13 27
20 27 46 10 53 -35 4 -21 11 -39 16 -39 6 0 8 14 4 35 -6 31 -4 35 13 35 23 0
45 34 37 56 -6 15 -64 54 -82 54 -5 0 -24 -29 -41 -65z m85 29 c45 -31 14 -75
-38 -54 -35 14 -33 12 -18 45 13 29 25 31 56 9z"/>
<path d="M8018 2173 c-52 -25 -62 -37 -23 -27 22 5 27 0 52 -53 34 -71 32 -68
39 -60 3 3 -6 31 -20 63 -31 68 -31 69 -4 81 12 5 18 12 12 15 -5 2 -30 -6
-56 -19z"/>
<path d="M4749 2031 l-26 -70 48 -20 c27 -11 51 -16 53 -12 3 4 -13 13 -34 20
-29 9 -40 17 -40 32 0 26 22 34 60 21 16 -6 30 -7 30 -2 0 5 -16 14 -35 20
-30 10 -35 15 -29 33 9 31 9 31 55 13 23 -9 44 -15 47 -12 5 5 -82 46 -96 46
-4 0 -19 -31 -33 -69z"/>
<path d="M7480 1968 c0 -2 7 -25 15 -52 8 -27 13 -51 10 -54 -2 -3 -30 14 -60
38 -31 23 -59 39 -62 36 -3 -3 5 -38 17 -78 13 -40 24 -68 26 -63 3 6 -2 32
-10 58 -8 26 -12 47 -9 47 3 0 31 -19 64 -42 33 -22 61 -39 63 -37 7 7 -37
149 -46 149 -4 0 -8 -1 -8 -2z"/>
<path d="M5370 1897 c14 -6 26 -12 28 -13 2 -1 -1 -19 -6 -40 -20 -80 -22 -94
-13 -94 5 0 15 29 22 65 12 63 14 65 43 66 30 1 30 1 -9 14 -22 8 -51 14 -65
14 l-25 0 25 -12z"/>
<path d="M7695 1890 c-3 -5 -1 -10 4 -10 6 0 11 5 11 10 0 6 -2 10 -4 10 -3 0
-8 -4 -11 -10z"/>
<path d="M7115 1855 c-69 -69 27 -172 104 -111 23 18 31 53 20 86 -20 55 -82
68 -124 25z m90 -10 c14 -13 25 -34 25 -46 0 -51 -63 -77 -102 -42 -26 23 -24
78 4 97 31 22 45 20 73 -9z"/>
<path d="M5614 1821 c-3 -20 -10 -53 -14 -74 -4 -20 -4 -39 0 -42 5 -3 11 8
15 25 10 45 40 40 65 -11 24 -45 37 -48 20 -4 -9 24 -7 31 10 47 40 38 19 75
-50 88 -39 7 -40 7 -46 -29z m89 -1 c20 -18 2 -45 -32 -48 -41 -4 -51 5 -44
41 5 25 8 27 37 21 17 -3 35 -10 39 -14z"/>
<path d="M6916 1770 c3 -36 10 -72 16 -80 12 -19 0 94 -13 124 -6 14 -7 -1 -3
-44z"/>
<path d="M5907 1746 c-38 -68 -50 -108 -19 -68 15 19 26 23 58 20 32 -2 40 -7
42 -25 3 -21 22 -34 22 -15 0 20 -47 146 -56 149 -5 2 -26 -26 -47 -61z m60
-1 c10 -31 9 -35 -7 -35 -10 0 -25 3 -34 6 -14 5 -14 9 1 35 10 16 20 29 23
29 4 0 11 -16 17 -35z"/>
<path d="M6655 1800 l-30 -8 31 -1 32 -1 7 -70 c4 -38 11 -70 16 -70 5 0 6 30
3 70 -7 66 -6 70 14 70 11 0 24 5 27 10 7 12 -54 12 -100 0z"/>
<path d="M6170 1715 l0 -75 45 0 c35 0 52 6 70 25 53 52 13 125 -70 125 l-45
0 0 -75z m107 38 c32 -42 -4 -107 -55 -101 -26 3 -27 6 -30 67 l-3 64 38 -6
c21 -4 44 -14 50 -24z"/>
<path d="M6471 1718 c-1 -46 3 -78 9 -78 11 0 11 80 0 125 -6 22 -8 9 -9 -47z"/>
<path d="M7765 1615 c-25 -12 -26 -14 -5 -9 28 7 60 23 45 23 -5 0 -23 -6 -40
-14z"/>
<path d="M7575 1554 c-22 -8 -105 -33 -185 -54 -80 -21 -138 -39 -130 -39 8
-1 74 15 145 34 135 36 251 74 225 74 -8 0 -33 -7 -55 -15z"/>
<path d="M5370 1457 c7 -7 265 -57 293 -56 19 1 -62 17 -258 54 -22 4 -38 5
-35 2z"/>
<path d="M7218 1453 c7 -3 16 -2 19 1 4 3 -2 6 -13 5 -11 0 -14 -3 -6 -6z"/>
<path d="M7168 1443 c6 -2 18 -2 25 0 6 3 1 5 -13 5 -14 0 -19 -2 -12 -5z"/>
<path d="M7118 1433 c6 -2 18 -2 25 0 6 3 1 5 -13 5 -14 0 -19 -2 -12 -5z"/>
<path d="M7068 1423 c6 -2 18 -2 25 0 6 3 1 5 -13 5 -14 0 -19 -2 -12 -5z"/>
<path d="M7013 1413 c9 -2 23 -2 30 0 6 3 -1 5 -18 5 -16 0 -22 -2 -12 -5z"/>
<path d="M6953 1403 c9 -2 23 -2 30 0 6 3 -1 5 -18 5 -16 0 -22 -2 -12 -5z"/>
<path d="M5725 1389 c22 -4 56 -8 75 -7 33 0 32 1 -10 9 -25 4 -58 7 -75 7
-26 0 -25 -1 10 -9z"/>
<path d="M6883 1393 c9 -2 23 -2 30 0 6 3 -1 5 -18 5 -16 0 -22 -2 -12 -5z"/>
<path d="M6803 1383 c9 -2 25 -2 35 0 9 3 1 5 -18 5 -19 0 -27 -2 -17 -5z"/>
<path d="M5863 1373 c15 -2 39 -2 55 0 15 2 2 4 -28 4 -30 0 -43 -2 -27 -4z"/>
<path d="M6703 1373 c15 -2 37 -2 50 0 12 2 0 4 -28 4 -27 0 -38 -2 -22 -4z"/>
<path d="M5978 1363 c17 -2 47 -2 65 0 17 2 3 4 -33 4 -36 0 -50 -2 -32 -4z"/>
<path d="M6583 1363 c15 -2 39 -2 55 0 15 2 2 4 -28 4 -30 0 -43 -2 -27 -4z"/>
<path d="M6198 1353 c56 -2 148 -2 205 0 56 1 10 3 -103 3 -113 0 -159 -2
-102 -3z"/>
</g>
</svg>
